<?xml version="1.0" encoding="UTF-8" standalone="no"?>
<svg
   width="944.82739"
   height="181.42114"
   viewBox="0 0 944.82739 181.42114"
   version="1.1"
   id="svg8"
   sodipodi:docname="bazaar.svg"
   inkscape:version="1.2.2 (b0a8486541, 2022-12-01)"
   inkscape:export-filename="bazaar.png"
   inkscape:export-xdpi="96"
   inkscape:export-ydpi="96"
   xmlns:inkscape="http://www.inkscape.org/namespaces/inkscape"
   xmlns:sodipodi="http://sodipodi.sourceforge.net/DTD/sodipodi-0.dtd"
   xmlns:xlink="http://www.w3.org/1999/xlink"
   xmlns="http://www.w3.org/2000/svg"
   xmlns:svg="http://www.w3.org/2000/svg">
  <defs
     id="defs12">
    <linearGradient
       inkscape:collect="always"
       id="linearGradient1436">
      <stop
         style="stop-color:#00ffff;stop-opacity:1"
         offset="0"
         id="stop1432" />
      <stop
         style="stop-color:#ff00ff;stop-opacity:1"
         offset="1"
         id="stop1434" />
    </linearGradient>
    <linearGradient
       inkscape:collect="always"
       id="linearGradient1428">
      <stop
         style="stop-color:#00ffff;stop-opacity:1"
         offset="0"
         id="stop1424" />
      <stop
         style="stop-color:#ff00ff;stop-opacity:1"
         offset="1"
         id="stop1426" />
    </linearGradient>
    <linearGradient
       inkscape:collect="always"
       xlink:href="#linearGradient1428"
       id="linearGradient1430"
       x1="385.68933"
       y1="451.05447"
       x2="539.65131"
       y2="628.11267"
       gradientUnits="userSpaceOnUse" />
    <linearGradient
       inkscape:collect="always"
       xlink:href="#linearGradient1436"
       id="linearGradient1438"
       x1="963.58606"
       y1="578.48065"
       x2="1020.9444"
       y2="639.27008"
       gradientUnits="userSpaceOnUse" />
  </defs>
  <sodipodi:namedview
     id="namedview10"
     pagecolor="#ffffff"
     bordercolor="#000000"
     borderopacity="0.25"
     inkscape:showpageshadow="2"
     inkscape:pageopacity="0.0"
     inkscape:pagecheckerboard="0"
     inkscape:deskcolor="#d1d1d1"
     showgrid="false"
     inkscape:zoom="0.39972898"
     inkscape:cx="-2.501695"
     inkscape:cy="586.64748"
     inkscape:window-width="1920"
     inkscape:window-height="1007"
     inkscape:window-x="0"
     inkscape:window-y="0"
     inkscape:window-maximized="1"
     inkscape:current-layer="svg8" />
  <g
     id="g1447"
     transform="translate(-67.586304,-449.28946)">
    <path
       d="m 149.18733,498.04478 c -16.67946,0 -30.79284,7.185 -40.80051,19.50214 v -61.58568 c 0,-4.36232 -2.30947,-6.67178 -6.41518,-6.67178 H 74.001479 c -4.105712,0 -6.415175,2.30946 -6.415175,6.67178 v 165.51151 c 0,4.36232 2.309463,6.67178 6.415175,6.67178 h 27.970161 c 4.10571,0 6.41518,-2.56607 6.41518,-6.67178 v -10.26428 c 10.00767,12.31714 24.12105,19.50213 40.80051,19.50213 32.58909,0 56.19693,-27.97016 56.19693,-66.46121 0,-38.23444 -23.60784,-66.20461 -56.19693,-66.20461 z m -13.08696,96.99745 c -15.90963,0 -27.71355,-12.83035 -27.71355,-30.79284 0,-17.70588 11.80392,-30.53623 27.71355,-30.53623 15.90964,0 27.45695,12.83035 27.45695,30.53623 0,17.96249 -11.54731,30.79284 -27.45695,30.79284 z"
       style="font-weight:bold;font-size:256.607px;font-family:'Publica Sans Round';-inkscape-font-specification:'Publica Sans Round Bold';fill:#ffffff;stroke-width:5.34599"
       id="path1402" />
    <path
       d="m 324.44984,500.61085 c -4.36232,0 -6.67178,2.30947 -6.67178,6.67179 v 10.00767 c -10.00768,-12.06053 -24.12106,-19.24553 -40.80052,-19.24553 -32.58909,0 -56.19693,27.97017 -56.19693,66.20461 0,38.49105 23.60784,66.46121 56.19693,66.46121 16.67946,0 30.79284,-7.18499 40.80052,-19.24552 v 10.00767 c 0,4.36232 2.30946,6.67178 6.67178,6.67178 h 27.71355 c 4.10571,0 6.67178,-2.30946 6.67178,-6.67178 V 507.28264 c 0,-4.36232 -2.56607,-6.67179 -6.67178,-6.67179 z m -34.12873,94.43138 c -15.90964,0 -27.71356,-12.83035 -27.71356,-30.79284 0,-17.70588 11.80392,-30.53623 27.71356,-30.53623 15.90963,0 27.45695,12.83035 27.45695,30.53623 0,17.96249 -11.54732,30.79284 -27.45695,30.79284 z"
       style="font-weight:bold;font-size:256.607px;font-family:'Publica Sans Round';-inkscape-font-specification:'Publica Sans Round Bold';fill:#ffffff;stroke-width:5.34599"
       id="path1404" />
    <path
       d="m 435.30399,589.65348 92.89173,-101.10315 c 2.30946,-2.30947 3.33589,-4.61893 3.33589,-7.95482 v -24.63427 c 0,-4.36232 -2.56607,-6.67178 -6.67178,-6.67178 H 392.45062 c -4.10571,0 -6.41517,2.30946 -6.41517,6.67178 v 25.14748 c 0,4.10572 2.30946,6.67179 6.41517,6.67179 h 85.96334 l -92.63512,100.84654 c -2.30946,2.56607 -3.33589,4.87554 -3.33589,8.21143 v 24.63427 c 0,4.36232 2.56607,6.67178 6.67178,6.67178 h 136.77153 c 4.10571,0 6.67178,-2.30946 6.67178,-6.67178 v -25.14749 c 0,-4.36231 -2.56607,-6.67178 -6.67178,-6.67178 z"
       style="font-weight:bold;font-size:256.607px;font-family:'Publica Sans Round';-inkscape-font-specification:'Publica Sans Round Bold';fill:url(#linearGradient1430);fill-opacity:1;stroke-width:5.34599"
       id="path1406" />
    <path
       d="m 648.28811,500.61085 c -4.36232,0 -6.67178,2.30947 -6.67178,6.67179 v 10.00767 c -10.00768,-12.06053 -24.12106,-19.24553 -40.80051,-19.24553 -32.58909,0 -56.19694,27.97017 -56.19694,66.20461 0,38.49105 23.60785,66.46121 56.19694,66.46121 16.67945,0 30.79283,-7.18499 40.80051,-19.24552 v 10.00767 c 0,4.36232 2.30946,6.67178 6.67178,6.67178 h 27.71355 c 4.10572,0 6.67179,-2.30946 6.67179,-6.67178 V 507.28264 c 0,-4.36232 -2.56607,-6.67179 -6.67179,-6.67179 z m -34.12873,94.43138 c -15.90963,0 -27.71356,-12.83035 -27.71356,-30.79284 0,-17.70588 11.80393,-30.53623 27.71356,-30.53623 15.90963,0 27.45695,12.83035 27.45695,30.53623 0,17.96249 -11.54732,30.79284 -27.45695,30.79284 z"
       style="font-weight:bold;font-size:256.607px;font-family:'Publica Sans Round';-inkscape-font-specification:'Publica Sans Round Bold';fill:#ffffff;stroke-width:5.34599"
       id="path1408" />
    <path
       d="m 807.89761,500.61085 c -4.36232,0 -6.67179,2.30947 -6.67179,6.67179 v 10.00767 c -10.00767,-12.06053 -24.12105,-19.24553 -40.80051,-19.24553 -32.58909,0 -56.19693,27.97017 -56.19693,66.20461 0,38.49105 23.60784,66.46121 56.19693,66.46121 16.67946,0 30.79284,-7.18499 40.80051,-19.24552 v 10.00767 c 0,4.36232 2.30947,6.67178 6.67179,6.67178 h 27.71355 c 4.10571,0 6.67178,-2.30946 6.67178,-6.67178 V 507.28264 c 0,-4.36232 -2.56607,-6.67179 -6.67178,-6.67179 z m -34.12873,94.43138 c -15.90964,0 -27.71356,-12.83035 -27.71356,-30.79284 0,-17.70588 11.80392,-30.53623 27.71356,-30.53623 15.90963,0 27.45694,12.83035 27.45694,30.53623 0,17.96249 -11.54731,30.79284 -27.45694,30.79284 z"
       style="font-weight:bold;font-size:256.607px;font-family:'Publica Sans Round';-inkscape-font-specification:'Publica Sans Round Bold';fill:#ffffff;stroke-width:5.34599"
       id="path1410" />
    <path
       d="m 948.77479,496.76175 c -16.93606,2.56607 -30.02302,14.11338 -37.72123,31.56266 v -21.04177 c 0,-4.36232 -2.30946,-6.67179 -6.41517,-6.67179 h -27.97016 c -4.10571,0 -6.41518,2.30947 -6.41518,6.67179 v 114.19011 c 0,4.36232 2.30947,6.67178 6.41518,6.67178 h 27.97016 c 4.10571,0 6.41517,-2.56607 6.41517,-6.67178 V 568.3551 c 0,-17.70588 15.13982,-29.5098 37.97784,-31.30605 4.36232,-0.25661 6.67178,-2.56607 6.67178,-6.67178 v -27.45695 c 0,-4.36232 -2.56607,-6.92839 -6.92839,-6.15857 z"
       style="font-weight:bold;font-size:256.607px;font-family:'Publica Sans Round';-inkscape-font-specification:'Publica Sans Round Bold';fill:#ffffff;stroke-width:5.34599"
       id="path1412" />
    <path
       d="m 984.95675,630.45399 c 15.90965,0 27.45695,-10.77749 27.45695,-25.9173 0,-15.13981 -11.5473,-25.91731 -27.45695,-25.91731 -16.16624,0 -27.71355,10.7775 -27.71355,25.91731 0,15.13981 11.54731,25.9173 27.71355,25.9173 z"
       style="font-weight:bold;font-size:256.607px;font-family:'Publica Sans Round';-inkscape-font-specification:'Publica Sans Round Bold';fill:url(#linearGradient1438);fill-opacity:1;stroke-width:5.34599"
       id="path1414" />
  </g>
</svg>
