<?xml version="1.0" encoding="UTF-8" standalone="no"?>
<!-- Created with Inkscape (http://www.inkscape.org/) -->

<svg
   width="1080"
   height="1080"
   viewBox="0 0 285.74999 285.75001"
   version="1.1"
   id="svg5"
   xml:space="preserve"
   sodipodi:docname="MrZangoRedacted.svg"
   inkscape:version="1.2.2 (b0a8486541, 2022-12-01)"
   inkscape:export-filename="RedactedMrZango.png"
   inkscape:export-xdpi="96"
   inkscape:export-ydpi="96"
   xmlns:inkscape="http://www.inkscape.org/namespaces/inkscape"
   xmlns:sodipodi="http://sodipodi.sourceforge.net/DTD/sodipodi-0.dtd"
   xmlns:xlink="http://www.w3.org/1999/xlink"
   xmlns="http://www.w3.org/2000/svg"
   xmlns:svg="http://www.w3.org/2000/svg"><sodipodi:namedview
     id="namedview7"
     pagecolor="#ffffff"
     bordercolor="#000000"
     borderopacity="0.25"
     inkscape:showpageshadow="2"
     inkscape:pageopacity="0.0"
     inkscape:pagecheckerboard="0"
     inkscape:deskcolor="#d1d1d1"
     inkscape:document-units="px"
     showgrid="false"
     inkscape:zoom="0.5946522"
     inkscape:cx="612.12251"
     inkscape:cy="516.26816"
     inkscape:window-width="1920"
     inkscape:window-height="1001"
     inkscape:window-x="0"
     inkscape:window-y="0"
     inkscape:window-maximized="1"
     inkscape:current-layer="layer1" /><defs
     id="defs2"><filter
       inkscape:collect="always"
       style="color-interpolation-filters:sRGB"
       id="filter6838"
       x="-0.16274013"
       y="-0.28998821"
       width="1.3254803"
       height="1.5799764"><feGaussianBlur
         inkscape:collect="always"
         stdDeviation="10.507652"
         id="feGaussianBlur6840" /></filter><linearGradient
       inkscape:collect="always"
       xlink:href="#linearGradient1436"
       id="linearGradient2116"
       gradientUnits="userSpaceOnUse"
       gradientTransform="matrix(1.0268724,0.27514958,-0.27514958,1.0268724,-173.77435,-536.99314)"
       x1="385.68933"
       y1="451.05447"
       x2="539.65131"
       y2="628.11267" /><linearGradient
       inkscape:collect="always"
       id="linearGradient1436"><stop
         style="stop-color:#00ffff;stop-opacity:1"
         offset="0"
         id="stop1432" /><stop
         style="stop-color:#ff00ff;stop-opacity:1"
         offset="1"
         id="stop1434" /></linearGradient><linearGradient
       inkscape:collect="always"
       xlink:href="#linearGradient1436"
       id="linearGradient2118"
       gradientUnits="userSpaceOnUse"
       gradientTransform="matrix(0.40860475,0,0,0.40860475,-175.01706,-4.5357366)"
       x1="963.58606"
       y1="578.48065"
       x2="1020.9444"
       y2="639.27008" /><filter
       inkscape:collect="always"
       style="color-interpolation-filters:sRGB"
       id="filter2087"
       x="-0.061938102"
       y="-0.055849758"
       width="1.1238762"
       height="1.1116995"><feGaussianBlur
         inkscape:collect="always"
         stdDeviation="5.1440722"
         id="feGaussianBlur2089" /></filter><linearGradient
       id="Shadow_1_"
       gradientUnits="userSpaceOnUse"
       x1="105.7159"
       y1="266.04501"
       x2="148.04539"
       y2="266.04501"
       gradientTransform="matrix(1.1378523,0,0,1.1378523,196.65991,-44.500135)">
		<stop
   offset="0"
   style="stop-color:#0C0C3A"
   id="stop2598" />
		<stop
   offset="1"
   style="stop-color:#0C0C3A"
   id="stop2600" />
	</linearGradient><linearGradient
       id="Shadow_2_"
       gradientUnits="userSpaceOnUse"
       x1="77.6931"
       y1="256.16599"
       x2="127.491"
       y2="256.16599"
       gradientTransform="matrix(1.1378523,0,0,1.1378523,196.65991,-44.500135)">
		<stop
   offset="0"
   style="stop-color:#0C0C3A"
   id="stop2604" />
		<stop
   offset="1"
   style="stop-color:#0C0C3A"
   id="stop2606" />
	</linearGradient><linearGradient
       id="Shadow_3_"
       gradientUnits="userSpaceOnUse"
       x1="148.739"
       y1="243.9201"
       x2="191.1942"
       y2="243.9201"
       gradientTransform="matrix(1.3793574,0,0,1.3793574,-145.75046,-163.03771)">
		<stop
   offset="0"
   style="stop-color:#0C0C3A"
   id="stop2610" />
		<stop
   offset="1"
   style="stop-color:#0C0C3A"
   id="stop2612" />
	</linearGradient><linearGradient
       id="SVGID_1_"
       gradientUnits="userSpaceOnUse"
       x1="7093.4214"
       y1="203.16119"
       x2="7088.5615"
       y2="191.46831"
       gradientTransform="matrix(-1,0,0,1,7326.8906,0)">
		<stop
   offset="5.050510e-03"
   style="stop-color:#66CCFF"
   id="stop4197" />
		<stop
   offset="0.2026"
   style="stop-color:#42CAEB"
   id="stop4199" />
		<stop
   offset="0.5253"
   style="stop-color:#00C7C5"
   id="stop4201" />
		<stop
   offset="0.674"
   style="stop-color:#09CEBE"
   id="stop4203" />
		<stop
   offset="0.9147"
   style="stop-color:#21E1AB"
   id="stop4205" />
		<stop
   offset="1"
   style="stop-color:#2BE9A3"
   id="stop4207" />
	</linearGradient><linearGradient
       id="SVGID_2_"
       gradientUnits="userSpaceOnUse"
       x1="7087.2163"
       y1="202.97279"
       x2="7092.6304"
       y2="199.6291"
       gradientTransform="matrix(-1.0469624,0,0,1.0469624,7335.0967,-14.34838)">
		<stop
   offset="5.050510e-03"
   style="stop-color:#273B98"
   id="stop4228" />
		<stop
   offset="0.2274"
   style="stop-color:#2F2BA2"
   id="stop4230" />
		<stop
   offset="0.399"
   style="stop-color:#361CAC"
   id="stop4232" />
		<stop
   offset="0.768"
   style="stop-color:#440B89"
   id="stop4234" />
		<stop
   offset="1"
   style="stop-color:#4E0070"
   id="stop4236" />
	</linearGradient><linearGradient
       id="SVGID_3_"
       gradientUnits="userSpaceOnUse"
       x1="7089.3564"
       y1="243.7919"
       x2="7088.8076"
       y2="212.80479"
       gradientTransform="matrix(-1.0469624,0,0,1.0469624,7335.0967,-14.34838)">
		<stop
   offset="5.050510e-03"
   style="stop-color:#273B98"
   id="stop4245" />
		<stop
   offset="0.2274"
   style="stop-color:#2F2BA2"
   id="stop4247" />
		<stop
   offset="0.399"
   style="stop-color:#361CAC"
   id="stop4249" />
		<stop
   offset="0.768"
   style="stop-color:#440B89"
   id="stop4251" />
		<stop
   offset="1"
   style="stop-color:#4E0070"
   id="stop4253" />
	</linearGradient><linearGradient
       id="SVGID_4_"
       gradientUnits="userSpaceOnUse"
       x1="7080.9463"
       y1="247.6804"
       x2="7082.5625"
       y2="213.4361"
       gradientTransform="matrix(-1.0469624,0,0,1.0469624,7335.0967,-14.34838)">
		<stop
   offset="5.050510e-03"
   style="stop-color:#273B98"
   id="stop4264" />
		<stop
   offset="0.2274"
   style="stop-color:#2F2BA2"
   id="stop4266" />
		<stop
   offset="0.399"
   style="stop-color:#361CAC"
   id="stop4268" />
		<stop
   offset="0.768"
   style="stop-color:#440B89"
   id="stop4270" />
		<stop
   offset="1"
   style="stop-color:#4E0070"
   id="stop4272" />
	</linearGradient><linearGradient
       id="SVGID_5_"
       gradientUnits="userSpaceOnUse"
       x1="7092.624"
       y1="215.4494"
       x2="7090.3145"
       y2="188.1178"
       gradientTransform="matrix(-1.0469624,0,0,1.0469624,7335.0967,-14.34838)">
		<stop
   offset="5.050510e-03"
   style="stop-color:#66CCFF"
   id="stop4283" />
		<stop
   offset="0.2026"
   style="stop-color:#42CAEB"
   id="stop4285" />
		<stop
   offset="0.5253"
   style="stop-color:#00C7C5"
   id="stop4287" />
		<stop
   offset="0.674"
   style="stop-color:#09CEBE"
   id="stop4289" />
		<stop
   offset="0.9147"
   style="stop-color:#21E1AB"
   id="stop4291" />
		<stop
   offset="1"
   style="stop-color:#2BE9A3"
   id="stop4293" />
	</linearGradient><linearGradient
       id="SVGID_6_"
       gradientUnits="userSpaceOnUse"
       x1="7083.1899"
       y1="218.6394"
       x2="7082.6787"
       y2="189.74741"
       gradientTransform="matrix(-1.0469624,0,0,1.0469624,7335.0967,-14.34838)">
		<stop
   offset="5.050510e-03"
   style="stop-color:#66CCFF"
   id="stop4298" />
		<stop
   offset="0.2026"
   style="stop-color:#42CAEB"
   id="stop4300" />
		<stop
   offset="0.5253"
   style="stop-color:#00C7C5"
   id="stop4302" />
		<stop
   offset="0.674"
   style="stop-color:#09CEBE"
   id="stop4304" />
		<stop
   offset="0.9147"
   style="stop-color:#21E1AB"
   id="stop4306" />
		<stop
   offset="1"
   style="stop-color:#2BE9A3"
   id="stop4308" />
	</linearGradient><linearGradient
       id="SVGID_7_"
       gradientUnits="userSpaceOnUse"
       x1="7080.9873"
       y1="219.5219"
       x2="7082.9121"
       y2="204.9415"
       gradientTransform="matrix(-1.0469624,0,0,1.0469624,7335.0967,-14.34838)">
		<stop
   offset="5.050510e-03"
   style="stop-color:#66CCFF"
   id="stop4313" />
		<stop
   offset="0.2026"
   style="stop-color:#42CAEB"
   id="stop4315" />
		<stop
   offset="0.5253"
   style="stop-color:#00C7C5"
   id="stop4317" />
		<stop
   offset="0.674"
   style="stop-color:#09CEBE"
   id="stop4319" />
		<stop
   offset="0.9147"
   style="stop-color:#21E1AB"
   id="stop4321" />
		<stop
   offset="1"
   style="stop-color:#2BE9A3"
   id="stop4323" />
	</linearGradient><linearGradient
       id="SVGID_8_"
       gradientUnits="userSpaceOnUse"
       x1="7429.3071"
       y1="-120.7738"
       x2="7446.6411"
       y2="-120.7738"
       gradientTransform="matrix(-1.0425651,0.09611116,0.09611116,1.0425651,7655.4487,-381.79272)">
		<stop
   offset="5.050510e-03"
   style="stop-color:#5277F7"
   id="stop4332" />
		<stop
   offset="0.393"
   style="stop-color:#7670F4"
   id="stop4334" />
		<stop
   offset="0.5253"
   style="stop-color:#836DF3"
   id="stop4336" />
		<stop
   offset="0.6478"
   style="stop-color:#8C6DF3"
   id="stop4338" />
		<stop
   offset="0.846"
   style="stop-color:#A46DF3"
   id="stop4340" />
		<stop
   offset="1"
   style="stop-color:#BB6DF3"
   id="stop4342" />
	</linearGradient><linearGradient
       id="SVGID_9_"
       gradientUnits="userSpaceOnUse"
       x1="-7144.1621"
       y1="260.29379"
       x2="-7140.7964"
       y2="227.9295"
       gradientTransform="matrix(1.0469624,0,0,1.0469624,7358.4207,-14.34838)">
		<stop
   offset="5.050510e-03"
   style="stop-color:#273B98"
   id="stop4365" />
		<stop
   offset="0.2274"
   style="stop-color:#2F2BA2"
   id="stop4367" />
		<stop
   offset="0.399"
   style="stop-color:#361CAC"
   id="stop4369" />
		<stop
   offset="0.768"
   style="stop-color:#440B89"
   id="stop4371" />
		<stop
   offset="1"
   style="stop-color:#4E0070"
   id="stop4373" />
	</linearGradient><linearGradient
       id="SVGID_10_"
       gradientUnits="userSpaceOnUse"
       x1="-7135.3286"
       y1="263.58319"
       x2="-7135.5859"
       y2="226.745"
       gradientTransform="matrix(1.0469624,0,0,1.0469624,7358.4207,-14.34838)">
		<stop
   offset="5.050510e-03"
   style="stop-color:#273B98"
   id="stop4382" />
		<stop
   offset="0.2274"
   style="stop-color:#2F2BA2"
   id="stop4384" />
		<stop
   offset="0.399"
   style="stop-color:#361CAC"
   id="stop4386" />
		<stop
   offset="0.768"
   style="stop-color:#440B89"
   id="stop4388" />
		<stop
   offset="1"
   style="stop-color:#4E0070"
   id="stop4390" />
	</linearGradient><linearGradient
       id="SVGID_12_"
       gradientUnits="userSpaceOnUse"
       x1="-7815.4341"
       y1="-795.68658"
       x2="-7817.5444"
       y2="-803.15961"
       gradientTransform="matrix(1.0375398,-0.14029297,0.14029297,1.0375398,8109.9013,-73.603103)">
		<stop
   offset="0.096"
   style="stop-color:#45108A"
   id="stop4420" />
		<stop
   offset="1"
   style="stop-color:#7C1DC9"
   id="stop4422" />
	</linearGradient><linearGradient
       id="SVGID_13_"
       gradientUnits="userSpaceOnUse"
       x1="7106.9185"
       y1="233.9628"
       x2="7111.3579"
       y2="206.96629"
       gradientTransform="matrix(-1.0469624,0,0,1.0469624,7335.0967,-14.34838)">
		<stop
   offset="5.050510e-03"
   style="stop-color:#5277F7"
   id="stop4451" />
		<stop
   offset="0.393"
   style="stop-color:#7670F4"
   id="stop4453" />
		<stop
   offset="0.5253"
   style="stop-color:#836DF3"
   id="stop4455" />
		<stop
   offset="0.6478"
   style="stop-color:#8C6DF3"
   id="stop4457" />
		<stop
   offset="0.846"
   style="stop-color:#A46DF3"
   id="stop4459" />
		<stop
   offset="1"
   style="stop-color:#BB6DF3"
   id="stop4461" />
	</linearGradient><linearGradient
       id="SVGID_14_"
       gradientUnits="userSpaceOnUse"
       x1="7090.0918"
       y1="209.3069"
       x2="7082.0557"
       y2="192.0322"
       gradientTransform="matrix(-1.0469624,0,0,1.0469624,7335.0967,-14.34838)">
		<stop
   offset="5.050510e-03"
   style="stop-color:#66CCFF"
   id="stop4466" />
		<stop
   offset="0.2026"
   style="stop-color:#42CAEB"
   id="stop4468" />
		<stop
   offset="0.5253"
   style="stop-color:#00C7C5"
   id="stop4470" />
		<stop
   offset="0.674"
   style="stop-color:#09CEBE"
   id="stop4472" />
		<stop
   offset="0.9147"
   style="stop-color:#21E1AB"
   id="stop4474" />
		<stop
   offset="1"
   style="stop-color:#2BE9A3"
   id="stop4476" />
	</linearGradient><linearGradient
       id="SVGID_15_"
       gradientUnits="userSpaceOnUse"
       x1="7085.71"
       y1="187.2735"
       x2="7093.0371"
       y2="182.8152"
       gradientTransform="matrix(-1.0469624,0,0,1.0469624,7335.0967,-14.34838)">
		<stop
   offset="0.096"
   style="stop-color:#45108A"
   id="stop4481" />
		<stop
   offset="1"
   style="stop-color:#7C1DC9"
   id="stop4483" />
	</linearGradient><linearGradient
       inkscape:collect="always"
       xlink:href="#Shadow_3_"
       id="linearGradient13694"
       gradientUnits="userSpaceOnUse"
       gradientTransform="matrix(0.88595898,0,0,0.88595898,-40.958434,-46.871182)"
       x1="148.739"
       y1="243.9201"
       x2="191.1942"
       y2="243.9201" /><filter
       inkscape:collect="always"
       style="color-interpolation-filters:sRGB"
       id="filter14337"
       x="-0.066732661"
       y="-0.11560278"
       width="1.1334653"
       height="1.2312056"><feGaussianBlur
         inkscape:collect="always"
         stdDeviation="1.0458507"
         id="feGaussianBlur14339" /></filter></defs><g
     inkscape:label="Layer 1"
     inkscape:groupmode="layer"
     id="layer1"><g
       id="g2515"
       transform="matrix(1.1273728,0,0,1.1273728,-18.198389,-18.19839)"><path
         id="path6836"
         style="mix-blend-mode:normal;fill:#1a1a1a;fill-opacity:1;stroke-width:1.94736;filter:url(#filter6838)"
         d="m 121.26522,194.49047 c 47.06408,18.38477 76.35645,36.1413 70.94454,56.33882 -5.41189,20.19751 -39.66707,26.59861 -89.25984,12.01476 -43.297886,-12.73268 -65.077992,-32.38709 -65.059873,-53.36461 0.02055,-23.78057 30.207742,-35.75794 83.375173,-14.98897 z"
         sodipodi:nodetypes="sssss"
         transform="matrix(0.80712278,0,0,0.80712278,26.07938,18.178833)" /><path
         id="path3627"
         style="fill:#220055;fill-opacity:1;stroke-width:2.35406"
         d="m 210.45076,141.4557 c -10.09777,40.53269 -27.4246,67.07895 -65.28268,67.07895 -37.85808,1e-5 -65.104445,-25.36885 -62.838833,-67.07895 1.978031,-36.41577 26.144173,-57.501775 62.838833,-61.869824 41.59786,-4.951713 76.68994,16.080795 65.28268,61.869824 z"
         sodipodi:nodetypes="sssss" /><path
         id="path3513"
         style="fill:#deaa87;stroke-width:3.3974"
         d="m 204.77495,160.99112 c 2.97962,11.12011 22.16287,29.15137 15.17933,31.02262 -6.98354,1.87122 -23.62215,-9.38075 -28.46705,-27.46217 -4.84492,-18.08143 3.93855,-36.14524 10.9221,-38.01647 6.98355,-1.87123 -0.614,23.33592 2.36562,34.45602 z"
         sodipodi:nodetypes="asssa" /><path
         id="path3282"
         style="fill:#deaa87;stroke-width:2.35406"
         d="m 134.24571,202.33394 c 0,7.97691 9.60548,23.48526 4.5959,23.48526 -5.00957,0 -14.12774,-10.51471 -14.12774,-23.48526 0,-12.97055 9.11817,-23.48528 14.12774,-23.48528 5.00958,0 -4.5959,15.50836 -4.5959,23.48528 z"
         sodipodi:nodetypes="asssa" /><path
         id="path3285"
         style="fill:#deaa87;stroke-width:2.35406"
         d="m 172.83059,199.17799 c 0,7.9769 9.60548,23.48526 4.5959,23.48526 -5.00958,0 -14.12775,-10.51472 -14.12775,-23.48526 0,-12.97056 9.11815,-23.48528 14.12775,-23.48528 5.00958,0 -4.5959,15.50835 -4.5959,23.48528 z"
         sodipodi:nodetypes="asssa" /><path
         id="rect3682"
         style="fill:#e9ddaf;fill-opacity:1;stroke:none;stroke-width:2.05094;stroke-dasharray:none;stroke-opacity:1"
         d="m 145.51504,157.59748 3.26688,12.19218 6.2069,-1.66313 -1.2158,-1.80527 3.36005,0.49911 -3.08399,-11.50958 z" /><rect
         style="fill:#e9ddaf;fill-opacity:1;stroke:none;stroke-width:2.05094;stroke-dasharray:none;stroke-opacity:1"
         id="rect3736"
         width="8.8353901"
         height="12.622311"
         x="158.89496"
         y="154.34639" /><path
         id="path3738"
         style="fill:#ff8080;stroke-width:2.10989"
         d="m 172.99025,171.47881 c 3.9116,8.15426 -7.87154,20.66448 -17.58156,20.66448 -9.71002,0 -17.58155,-4.51284 -17.58155,-10.0797 0,-5.56686 10.1766,-16.36074 17.58155,-10.0797 6.82646,5.79034 15.04578,-5.79129 17.58156,-0.50508 z"
         sodipodi:nodetypes="asssa" /><path
         id="path5594"
         style="fill:#d89b73;fill-opacity:1;stroke-width:3.3974"
         d="m 203.02221,126.43771 c -0.19053,0.006 -0.39447,0.0387 -0.61271,0.0972 -6.98352,1.87124 -15.7673,19.93531 -10.92239,38.01672 4.8449,18.0814 21.48343,29.33341 28.46696,27.46217 0.54341,-0.14559 0.92803,-0.38947 1.17453,-0.71988 -7.93214,-1.16517 -21.1784,-11.75156 -25.41342,-27.55687 -4.31042,-16.08666 2.16644,-32.15891 8.56581,-36.82717 -0.33266,-0.32232 -0.74572,-0.49058 -1.25878,-0.47215 z" /><path
         id="path5599"
         style="fill:#d89b73;fill-opacity:1;stroke-width:2.35406"
         d="m 177.03069,175.71549 c -5.07822,0.52267 -13.73192,10.82635 -13.73192,23.46269 0,12.97055 9.11818,23.48522 14.12774,23.48522 0.43158,0 0.75464,-0.11529 0.98476,-0.33075 -5.0666,-0.42042 -13.81284,-10.76693 -13.81284,-23.47062 0,-11.61119 7.30682,-21.25283 12.43226,-23.14654 z" /><path
         id="path5604"
         style="fill:#d89b73;fill-opacity:1;stroke-width:2.35406"
         d="m 138.84172,178.8487 c -5.00958,0 -14.12774,10.51465 -14.12774,23.4852 0,12.97054 9.11817,23.48521 14.12774,23.48521 0.24962,0 0.46229,-0.0389 0.64233,-0.11296 -5.1213,-1.0337 -13.29816,-11.11302 -13.29816,-23.39638 0,-12.21381 8.08462,-22.24853 13.21098,-23.37802 -0.16101,-0.0533 -0.34403,-0.083 -0.55515,-0.083 z" /><path
         id="path954"
         style="fill:#683cd2;fill-opacity:1;stroke-width:2.35406"
         d="m 156.66287,78.877304 c -3.75248,0.0085 -7.5951,0.244295 -11.49489,0.708517 -36.69463,4.368045 -60.860702,25.454239 -62.838733,61.869989 -2.265612,41.71005 24.980683,67.07881 62.838733,67.0788 37.85804,0 55.18516,-26.54615 65.2829,-67.0788 C 220.7887,99.959528 192.93689,78.795322 156.66287,78.877304 Z m -1.61427,81.578816 a 16.994107,7.9799908 0 0 1 16.99429,7.9799 16.994107,7.9799908 0 0 1 -16.99429,7.98036 16.994107,7.9799908 0 0 1 -16.99385,-7.98036 16.994107,7.9799908 0 0 1 16.99385,-7.9799 z" /><path
         id="path5863"
         style="fill:#442178;fill-opacity:1;stroke-width:2.35406"
         d="m 156.40214,78.880855 c -3.66997,0.01854 -7.42411,0.251371 -11.23396,0.704886 -36.69462,4.368045 -60.861088,25.454059 -62.839107,61.869789 -2.265613,41.71006 24.981067,67.07931 62.839107,67.07929 3.64208,0 7.09211,-0.24846 10.366,-0.72866 -37.35034,-0.43174 -64.113,-25.71738 -61.866879,-67.06886 1.976154,-36.38118 26.098809,-57.46085 62.734839,-61.856445 z" /><circle
         style="fill:#ffffff;fill-opacity:1;stroke:none;stroke-width:2.35406;stroke-dasharray:none;stroke-opacity:1"
         id="path3339"
         cx="134.47151"
         cy="137.15984"
         r="18.856699" /><circle
         style="fill:#ffffff;fill-opacity:1;stroke:none;stroke-width:2.35406;stroke-dasharray:none;stroke-opacity:1"
         id="circle3395"
         cx="179.83749"
         cy="139.93028"
         r="14.028755" /><circle
         style="fill:#000000;fill-opacity:1;stroke:#000000;stroke-width:1.66803;stroke-dasharray:none;stroke-opacity:1"
         id="path3455"
         cx="137.66476"
         cy="144.98918"
         r="5.0367475" /><circle
         style="fill:#000000;fill-opacity:1;stroke:#000000;stroke-width:1.3725;stroke-dasharray:none;stroke-opacity:1"
         id="circle3509"
         cx="182.17183"
         cy="146.25352"
         r="4.1443958" /><circle
         style="fill:#ffffff;fill-opacity:1;stroke:#000000;stroke-width:0.550588;stroke-dasharray:none;stroke-opacity:1"
         id="circle4574"
         cx="139.43346"
         cy="146.75357"
         r="1.6625464" /><circle
         style="fill:#ffffff;fill-opacity:1;stroke:#000000;stroke-width:0.550588;stroke-dasharray:none;stroke-opacity:1"
         id="circle4576"
         cx="183.70752"
         cy="147.88614"
         r="1.6625464" /><path
         id="path4584"
         style="fill:#1a1a1a;stroke-width:2.67774"
         d="m 185.28267,159.15258 c 4.39115,-1.9753 -6.01733,6.03077 -13.4401,6.03077 -7.42274,0 -13.44006,-2.70007 -13.44006,-6.03077 0,-3.33068 12.22894,-10.50319 13.44006,-6.03075 2.35728,8.70486 10.81468,7.21178 13.4401,6.03075 z"
         sodipodi:nodetypes="sssss" /><path
         id="path4587"
         style="fill:#1a1a1a;stroke-width:2.67774"
         d="m 134.61121,159.15258 c -4.39114,-1.9753 6.01734,6.03077 13.4401,6.03077 7.42273,0 13.44007,-2.70007 13.44007,-6.03077 0,-3.33068 -12.22895,-10.50319 -13.44007,-6.03075 -2.35728,8.70486 -10.81467,7.21178 -13.4401,6.03075 z"
         sodipodi:nodetypes="sssss" /><path
         id="path4602"
         style="fill:#333333;stroke-width:3.24752"
         d="m 155.41839,28.66593 c 25.25204,2.127137 41.84912,7.951969 56.28191,15.080694 l -14.95161,55.800181 c -20.23843,1.986035 -39.71625,0.362534 -56.2819,-15.080698 z"
         sodipodi:nodetypes="ccccc" /><path
         id="path4591"
         style="fill:#1a1a1a;stroke-width:3.05153"
         d="m 216.06869,106.56065 c -1.95948,7.31292 -17.2956,11.23033 -44.01982,4.0696 -26.72421,-7.16074 -54.7166,-22.687992 -52.75711,-30.000908 1.95948,-7.312918 25.21222,-7.43629 51.93644,-0.275559 26.72421,7.160732 46.79999,18.893943 44.84049,26.206867 z"
         sodipodi:nodetypes="sssss" /><path
         id="path4600"
         style="fill:#000000;stroke-width:3.24752"
         d="m 155.41839,28.66593 c 16.3057,10.241736 35.38873,14.583792 56.28191,15.080694 l -14.95161,55.800181 c -20.23843,1.986035 -39.71625,0.362534 -56.2819,-15.080698 z"
         sodipodi:nodetypes="ccccc" /><path
         style="fill:#220055;fill-opacity:1;stroke:#000000;stroke-width:0.00353157;stroke-dasharray:none;stroke-opacity:1"
         d="m 211.59216,108.05071 c 2.66559,3.62457 1.54079,26.33037 -0.49426,25.94252 -5.94618,-9.61754 -7.57728,-17.36654 -6.41424,-23.90561 -4.57237,3.27695 -5.72167,13.70884 -13.85566,9.54117 l -9.87262,-10.42223 c 0,0 -19.55192,22.28546 -20.12278,21.17618 -0.57084,-1.10926 0.52956,-27.00287 0.52956,-27.00287 -2.45293,7.01953 -2.66628,16.96386 -10.97989,16.32953 -7.89514,-4.97487 -3.67399,-13.19808 -2.80227,-18.70795 -4.73935,6.39159 -11.51744,8.9706 -20.12218,9.80636 0,0 5.79763,-18.055727 5.7628,-16.205021 -0.0676,3.591776 -17.6955,13.280521 -19.04279,10.831721 3.1505,-4.18961 6.99926,-8.110057 6.01407,-13.89394 l -32.725697,26.29328 c 6.06953,-16.46064 18.939047,-27.541383 34.709137,-37.133395 z"
         id="path5742"
         sodipodi:nodetypes="cccccsccccsccccc" /><path
         id="path5744"
         style="fill:#1a1a1a;fill-opacity:1;stroke:#000000;stroke-width:0.00353157;stroke-dasharray:none;stroke-opacity:1"
         d="M 119.02027,88.763019 89.948088,112.1206 c -0.92044,1.83166 -1.75136,3.73266 -2.481699,5.71334 L 118.99439,92.502668 c 0.22091,-1.164824 0.25374,-2.401812 0.0259,-3.739649 z m 12.16824,4.748599 c -2.55689,3.049823 -10.2385,7.544562 -14.78551,9.034222 -0.73432,0.96569 -1.49719,1.92064 -2.22519,2.88877 0.93806,1.70501 9.76431,-2.47362 15.06496,-6.381923 0.71355,-2.111484 1.41987,-4.14818 1.94574,-5.541069 z m 15.2201,4.712309 c -4.33512,5.846423 -10.38104,8.497403 -17.9654,9.547653 -0.58238,1.78281 -0.98518,3.03644 -0.98518,3.03644 7.21703,-0.70098 13.14819,-2.6297 17.67012,-7.00424 0.44852,-1.99766 1.01685,-3.913587 1.28046,-5.579853 z m 13.78198,2.378263 c -2.45292,7.01951 -2.66636,16.9639 -10.97994,16.32957 -1.47872,-0.93175 -2.53224,-1.97726 -3.26251,-3.09774 0.50596,2.17356 1.78706,4.20762 4.43411,5.87558 6.37633,0.48651 7.98868,-5.24903 9.50011,-11.11593 0.15955,-4.47439 0.30823,-7.99148 0.30823,-7.99148 z m 19.59333,5.82678 c 0,0 -15.01862,17.11817 -19.11325,20.60018 0.002,1.8478 0.0457,3.12795 0.16182,3.35342 0.57086,1.10927 20.12304,-21.17619 20.12304,-21.17619 l 9.87256,10.4223 c 7.15556,3.66635 8.90639,-3.96396 12.33678,-8.08408 -0.0129,-1.46728 0.10608,-2.87759 0.34743,-4.23474 -4.57235,3.27695 -5.72183,13.70907 -13.85581,9.5414 z m 31.57305,1.5495 c 1.37746,7.0974 0.30561,23.56794 -1.43063,23.23703 -1.35855,-2.19737 -2.48104,-4.29253 -3.40722,-6.30268 1.08125,2.83411 2.58129,5.84964 4.57884,9.08051 2.03504,0.38786 3.15983,-22.31815 0.49424,-25.94271 z" /><path
         id="path4665"
         style="fill:#333333;stroke-width:3.24752"
         d="m 155.4184,28.665931 c 25.25203,2.127139 41.84912,7.951975 56.28191,15.080699 l -14.95162,55.800175 c -20.23843,1.986045 -39.71622,0.362534 -56.28189,-15.080688 z"
         sodipodi:nodetypes="ccccc" /><path
         id="path4667"
         style="fill:#1a1a1a;stroke-width:3.05152"
         d="m 216.0687,106.56066 c -1.95948,7.31291 -17.2956,11.23033 -44.01983,4.06959 -26.72421,-7.16074 -54.7166,-22.687992 -52.7571,-30.000911 1.95949,-7.312916 25.21221,-7.436281 51.93643,-0.275558 26.72422,7.160734 46.79999,18.893945 44.8405,26.206879 z"
         sodipodi:nodetypes="sssss" /><path
         id="path4669"
         style="fill:#000000;stroke-width:3.24752"
         d="m 155.4184,28.665931 c 16.30569,10.241738 35.38873,14.583799 56.28191,15.080699 l -14.95162,55.800175 c -20.23843,1.986045 -39.71622,0.362534 -56.28189,-15.080688 z"
         sodipodi:nodetypes="ccccc" /><path
         id="path4678"
         style="fill:#d42aff;stroke-width:3.24752"
         d="m 202.23539,79.070165 c -3.56248,-0.05708 -20.94265,-0.451864 -29.78711,-2.821733 -8.33824,-2.234221 -22.34323,-9.771251 -26.54141,-12.084789 l -3.53135,13.179368 c 4.19817,2.313531 18.20313,9.85056 26.54138,12.084778 8.84353,2.369631 26.2215,2.764226 29.78644,2.821345 z" /><g
         id="g2294"><path
           id="path3511"
           style="fill:#deaa87;stroke-width:3.3974"
           d="m 89.928888,165.20898 c 1.021755,12.91283 20.597672,36.48793 13.367772,36.48793 -7.229894,0 -27.124235,-17.76867 -27.124235,-36.48793 0,-18.71927 13.159429,-33.89424 20.389336,-33.89424 7.229899,0 -7.540967,22.41772 -6.632873,33.89424 z"
           sodipodi:nodetypes="asssa" /><path
           id="path5588"
           style="fill:#d89b73;fill-opacity:1;stroke-width:3.3974"
           d="m 96.561924,131.31478 c -7.229895,0 -20.389554,15.17491 -20.389554,33.89416 0,18.71925 19.894455,36.48806 27.12434,36.48806 0.52354,0 0.90573,-0.12444 1.16535,-0.35869 -8.184873,-2.13091 -25.527291,-18.77802 -25.527291,-36.25617 0,-17.21443 11.128216,-31.4306 18.540168,-33.60512 -0.254357,-0.10543 -0.555777,-0.16224 -0.913013,-0.16224 z" /></g><g
         id="g5140"
         transform="matrix(0.12527069,0,0,0.12527069,162.2009,39.43081)"><g
           id="g5039"
           transform="translate(-6.616271)"><g
             id="g2085"
             transform="matrix(0.83021853,0,0,0.83021853,27.228722,41.281424)"
             style="mix-blend-mode:normal;fill:#1a1a1a;filter:url(#filter2087)"><path
               d="M 110.98439,188.27944 234.1908,110.01851 c 3.00696,-1.73609 4.69645,-3.82515 5.61427,-7.25073 l 6.77815,-25.296224 c 1.2003,-4.479538 -0.79933,-7.557136 -5.01535,-8.686798 L 105.60055,32.352392 c -4.21607,-1.129662 -7.223045,0.606386 -8.423328,5.085969 l -6.91932,25.823227 c -1.129662,4.21606 0.535802,7.486552 4.751818,8.616214 L 183.28309,95.530563 60.410791,173.5986 c -3.077598,1.99957 -4.767039,4.08866 -5.684903,7.5142 l -6.778105,25.29623 c -1.200291,4.47958 0.799236,7.55713 5.015296,8.68684 l 140.446911,37.63261 c 4.21602,1.12971 7.48652,-0.5358 8.6868,-5.01534 l 6.91932,-25.82323 c 1.2003,-4.47953 -0.79924,-7.55713 -5.01533,-8.68684 z"
               style="font-weight:bold;font-size:256.607px;font-family:'Publica Sans Round';-inkscape-font-specification:'Publica Sans Round Bold';fill:#1a1a1a;fill-opacity:1;stroke-width:5.68328"
               id="path2081" /><path
               d="m 227.44093,253.07076 c 6.50077,0 11.21904,-4.40375 11.21904,-10.58994 0,-6.18619 -4.71827,-10.58993 -11.21904,-10.58993 -6.60562,0 -11.32389,4.40374 -11.32389,10.58993 0,6.18619 4.71827,10.58994 11.32389,10.58994 z"
               style="font-weight:bold;font-size:256.607px;font-family:'Publica Sans Round';-inkscape-font-specification:'Publica Sans Round Bold';fill:#1a1a1a;fill-opacity:1;stroke-width:2.18439"
               id="path2083" /></g><g
             id="g1664"
             transform="matrix(0.83021853,0,0,0.83021853,21.735772,27.036802)"><path
               d="M 110.98439,188.27944 234.1908,110.01851 c 3.00696,-1.73609 4.69645,-3.82515 5.61427,-7.25073 l 6.77815,-25.296224 c 1.2003,-4.479538 -0.79933,-7.557136 -5.01535,-8.686798 L 105.60055,32.352392 c -4.21607,-1.129662 -7.223045,0.606386 -8.423328,5.085969 l -6.91932,25.823227 c -1.129662,4.21606 0.535802,7.486552 4.751818,8.616214 L 183.28309,95.530563 60.410791,173.5986 c -3.077598,1.99957 -4.767039,4.08866 -5.684903,7.5142 l -6.778105,25.29623 c -1.200291,4.47958 0.799236,7.55713 5.015296,8.68684 l 140.446911,37.63261 c 4.21602,1.12971 7.48652,-0.5358 8.6868,-5.01534 l 6.91932,-25.82323 c 1.2003,-4.47953 -0.79924,-7.55713 -5.01533,-8.68684 z"
               style="font-weight:bold;font-size:256.607px;font-family:'Publica Sans Round';-inkscape-font-specification:'Publica Sans Round Bold';fill:url(#linearGradient2116);fill-opacity:1;stroke-width:5.68328"
               id="path14361" /><path
               d="m 227.44093,253.07076 c 6.50077,0 11.21904,-4.40375 11.21904,-10.58994 0,-6.18619 -4.71827,-10.58993 -11.21904,-10.58993 -6.60562,0 -11.32389,4.40374 -11.32389,10.58993 0,6.18619 4.71827,10.58994 11.32389,10.58994 z"
               style="font-weight:bold;font-size:256.607px;font-family:'Publica Sans Round';-inkscape-font-specification:'Publica Sans Round Bold';fill:url(#linearGradient2118);fill-opacity:1;stroke-width:2.18439"
               id="path14369" /></g></g></g><g
         id="g14820"
         transform="matrix(1.3095526,0,0,1.3095526,77.963988,-46.84101)"><g
           id="Coin_00000149383375364639736200000005687636815385633175_"
           transform="matrix(0.6924531,0,0,0.6924531,-12.360314,-2.1520402)">
		<g
   id="XMLID_00000111906556823549774270000001681892117087400353_">
			<g
   id="XMLID_00000102507921013546043360000010898014835018269874_">
				<path
   id="XMLID_00000060732066356979980090000015685723096975385525_"
   fill="#3d94ef"
   d="m 187.3,239.18 c -0.88,-1.48 -2.33,-2.87 -4.38,-4.05 -7.15,-4.13 -18.75,-4.13 -25.91,0 -2.04,1.18 -3.5,2.57 -4.38,4.05 h -0.99 v 3.74 h 0.01 c 0.13,2.6 1.91,5.18 5.35,7.17 7.15,4.13 18.75,4.13 25.91,0 3.44,-1.99 5.23,-4.57 5.37,-7.17 v 0 -3.74 z" />
				<path
   id="XMLID_00000150069076333276728040000013425194565922729876_"
   opacity="0.25"
   d="m 187.3,239.18 c -0.88,-1.48 -2.33,-2.87 -4.38,-4.05 -7.15,-4.13 -18.75,-4.13 -25.91,0 -2.04,1.18 -3.5,2.57 -4.38,4.05 h -0.99 v 3.74 h 0.01 c 0.13,2.6 1.91,5.18 5.35,7.17 7.15,4.13 18.75,4.13 25.91,0 3.44,-1.99 5.23,-4.57 5.37,-7.17 v 0 -3.74 z" />
				<path
   id="XMLID_00000093149182669680956720000000458645422232377746_"
   opacity="0.1"
   d="m 169.97,232.04 c -4.69,0 -9.38,1.03 -12.96,3.1 -2.04,1.18 -3.5,2.57 -4.38,4.05 h -0.99 v 3.74 h 0.01 c 0.13,2.6 1.91,5.18 5.35,7.17 3.58,2.07 8.27,3.1 12.96,3.1 v -21.16 z" />
				<path
   id="XMLID_00000172420775487325088390000007535898364619309969_"
   opacity="0.1"
   d="m 159.96,233.76 c -1.04,0.39 -2.03,0.85 -2.95,1.38 -2.04,1.18 -3.5,2.57 -4.38,4.05 h -0.99 v 3.74 h 0.01 c 0.13,2.6 1.91,5.18 5.35,7.17 0.92,0.53 1.91,0.99 2.95,1.38 v -17.72 z" />
				<path
   id="XMLID_00000125595844922013568370000006131491861743865488_"
   fill="#3d94ef"
   d="m 179.97,233.76 c 1.04,0.39 2.03,0.85 2.95,1.38 2.04,1.18 3.5,2.57 4.38,4.05 h 0.99 v 3.74 0 c -0.13,2.6 -1.93,5.18 -5.37,7.17 -0.92,0.53 -1.91,0.99 -2.95,1.38 z" />
			</g>
			<g
   id="XMLID_00000141450728454403191090000010649722510432578455_">
				<g
   id="g4003">
					<g
   id="g4001">
						<path
   id="XMLID_00000139975278816358507610000007967783246791797909_"
   fill="#3d94ef"
   d="m 157.01,231.71 c -7.15,4.13 -7.15,10.83 0,14.96 6.26,3.61 15.92,4.07 23.03,1.36 v 0 c 0.09,-0.04 0.19,-0.07 0.28,-0.11 0.91,-0.36 1.78,-0.78 2.59,-1.24 5.97,-3.44 6.96,-8.67 2.97,-12.71 0,0 0,0 0,0 -0.79,-0.8 -1.78,-1.56 -2.97,-2.25 -7.14,-4.14 -18.74,-4.14 -25.9,-0.01 z" />
						<path
   id="XMLID_00000096049566672255515950000013259231464142876598_"
   opacity="0.2"
   d="m 157.01,231.71 c -7.15,4.13 -7.15,10.83 0,14.96 6.26,3.61 15.92,4.07 23.03,1.36 v 0 c 0.09,-0.04 0.19,-0.07 0.28,-0.11 0.91,-0.36 1.78,-0.78 2.59,-1.24 5.97,-3.44 6.96,-8.67 2.97,-12.71 0,0 0,0 0,0 -0.79,-0.8 -1.78,-1.56 -2.97,-2.25 -7.14,-4.14 -18.74,-4.14 -25.9,-0.01 z" />
					</g>
				</g>
				<g
   id="g4007">
					<path
   id="XMLID_00000166640882703091115860000006345780597206560649_"
   opacity="0.5"
   fill="#f5f5f5"
   d="m 185.89,233.95 c 0.08,0.09 2.58,2.73 1.92,6.53 -0.63,3.64 -5.72,6.7 -7.48,7.43 0.91,-0.36 1.78,-0.78 2.59,-1.24 5.97,-3.45 6.96,-8.68 2.97,-12.72 z" />
					<path
   id="XMLID_00000070798277357088628880000002983999578214175391_"
   opacity="0.5"
   fill="#f5f5f5"
   d="m 154.04,244.42 c -0.08,-0.09 -2.58,-2.73 -1.92,-6.53 0.63,-3.64 5.72,-6.69 7.48,-7.43 -0.91,0.36 -1.78,0.78 -2.59,1.24 -5.96,3.45 -6.96,8.68 -2.97,12.72 z" />
				</g>
			</g>
		</g>
		<g
   id="g4049">
			<g
   id="XMLID_00000171709334758437979120000013464288578896904580_">
				<ellipse
   fill="#3d94ef"
   cx="169.97"
   cy="239.17"
   rx="17.030001"
   ry="9.8299999"
   id="ellipse4011" />
				<ellipse
   opacity="0.4"
   fill="#ffffff"
   cx="169.97"
   cy="239.17"
   rx="17.030001"
   ry="9.8299999"
   id="ellipse4013" />
				<path
   id="XMLID_00000155854625492989094570000006349871592901062034_"
   opacity="0.2"
   fill="#ffffff"
   d="m 186.23,242.11 c 1.37,-2.53 0.92,-5.32 -1.34,-7.69 -0.42,-0.44 -0.9,-0.86 -1.44,-1.26 -0.42,-0.32 -0.88,-0.62 -1.38,-0.91 -0.27,-0.16 -0.55,-0.31 -0.84,-0.45 0.71,1.16 0.45,2.41 -3.56,2.65 -7.85,0.46 2.1,7.96 2.1,7.96 0,0 5.06,-2.45 6.46,-0.3 z" />
				<path
   id="XMLID_00000002365009207369903940000004316140383657997748_"
   opacity="0.5"
   fill="#ffffff"
   d="m 185.42,240.03 c 1.18,-0.13 1.76,-1.34 1.3,-2.71 -0.46,-1.36 -1.78,-2.36 -2.96,-2.23 -1.18,0.13 -1.76,1.34 -1.3,2.71 0.46,1.37 1.78,2.36 2.96,2.23 z" />
				<path
   id="XMLID_00000154425033125477405540000007770001179240472240_"
   fill="#3d94ef"
   d="m 173,246.28 c -0.39,-2.91 -13.13,-10.98 -13.13,-10.98 0,0 -2.83,-1.13 -1.89,-3.11 -0.49,0.28 -0.94,0.58 -1.36,0.88 -0.29,0.21 -0.57,0.43 -0.83,0.66 -3.79,3.28 -3.8,7.6 0,10.89 0.26,0.22 0.53,0.44 0.83,0.66 0.39,0.28 0.81,0.56 1.26,0.82 0.43,0.25 0.88,0.49 1.35,0.71 0.37,0.18 0.76,0.34 1.15,0.49 0.39,0.15 0.79,0.3 1.19,0.43 1.21,0.4 2.49,0.7 3.8,0.91 0.28,0.05 0.57,0.09 0.86,0.12 1.25,0.16 2.53,0.24 3.8,0.24 1.57,0 3.13,-0.13 4.65,-0.38 0.01,0 -2.04,-0.42 -1.68,-2.34 z" />
				<path
   id="XMLID_00000075141327430028709690000008068275248579191228_"
   opacity="0.3"
   fill="#ffffff"
   d="m 173,246.28 c -0.39,-2.91 -13.13,-10.98 -13.13,-10.98 0,0 -2.83,-1.13 -1.89,-3.11 -0.49,0.28 -0.94,0.58 -1.36,0.88 -0.29,0.21 -0.57,0.43 -0.83,0.66 -3.79,3.28 -3.8,7.6 0,10.89 0.26,0.22 0.53,0.44 0.83,0.66 0.39,0.28 0.81,0.56 1.26,0.82 0.43,0.25 0.88,0.49 1.35,0.71 0.37,0.18 0.76,0.34 1.15,0.49 0.39,0.15 0.79,0.3 1.19,0.43 1.21,0.4 2.49,0.7 3.8,0.91 0.28,0.05 0.57,0.09 0.86,0.12 1.25,0.16 2.53,0.24 3.8,0.24 1.57,0 3.13,-0.13 4.65,-0.38 0.01,0 -2.04,-0.42 -1.68,-2.34 z" />
				<path
   id="XMLID_00000165217275131803462910000014264760972278047145_"
   fill="#3d94ef"
   d="m 161,233.99 c -4.75,2.74 -4.95,7.12 -0.58,10 0.19,0.12 0.38,0.24 0.58,0.36 4.95,2.86 12.99,2.86 17.94,0 4.95,-2.86 4.96,-7.5 0,-10.36 -0.2,-0.12 -0.41,-0.23 -0.62,-0.34 -4.99,-2.52 -12.57,-2.4 -17.32,0.34 z" />
				<path
   id="XMLID_00000173845026287724846250000005432354189069086104_"
   opacity="0.2"
   d="m 161,233.99 c -4.75,2.74 -4.95,7.12 -0.58,10 0.19,0.12 0.38,0.24 0.58,0.36 4.95,2.86 12.99,2.86 17.94,0 4.95,-2.86 4.96,-7.5 0,-10.36 -0.2,-0.12 -0.41,-0.23 -0.62,-0.34 -4.99,-2.52 -12.57,-2.4 -17.32,0.34 z" />
				<ellipse
   fill="#3d94ef"
   cx="169.97"
   cy="239.17"
   rx="12.13"
   ry="7"
   id="ellipse4021" />
				<ellipse
   opacity="0.5"
   cx="169.97"
   cy="239.17"
   rx="12.13"
   ry="7"
   id="ellipse4023" />
				<path
   fill="#3d94ef"
   d="m 161.4,236.17 c 4.74,-2.73 12.41,-2.73 17.15,0 1.94,1.12 3.08,2.52 3.43,3.97 -0.35,1.45 -1.5,2.86 -3.43,3.97 -4.74,2.73 -12.41,2.73 -17.15,0 -1.94,-1.12 -3.08,-2.52 -3.43,-3.97 0.35,-1.45 1.49,-2.85 3.43,-3.97 z"
   id="path4025" />
				<path
   opacity="0.35"
   d="m 161.4,236.17 c 4.74,-2.73 12.41,-2.73 17.15,0 1.94,1.12 3.08,2.52 3.43,3.97 -0.35,1.45 -1.5,2.86 -3.43,3.97 -4.74,2.73 -12.41,2.73 -17.15,0 -1.94,-1.12 -3.08,-2.52 -3.43,-3.97 0.35,-1.45 1.49,-2.85 3.43,-3.97 z"
   id="path4027" />
			</g>
			<path
   fill="#3d94ef"
   d="m 177.61,241.28 c 0,-0.24 0,-1.2 0,-1.45 0,-0.59 -0.41,-1.17 -1.29,-1.69 -0.01,-0.01 -0.02,-0.01 -0.03,-0.02 -1.63,-0.94 -3.31,-0.82 -4.81,-0.44 0,0 -0.01,0 -0.01,0 -0.64,0.16 -1.24,0.37 -1.79,0.56 -0.76,0.27 -1.39,0.48 -1.93,0.6 0,0 0,0 0,0 -0.33,0.07 -0.64,0.1 -0.92,0.09 -0.27,-0.02 -0.52,-0.08 -0.76,-0.2 0.02,-0.01 0.04,-0.03 0.06,-0.04 0.06,-0.04 0.12,-0.08 0.19,-0.12 0.17,-0.1 0.34,-0.18 0.51,-0.25 0.94,-0.4 1.85,-0.38 2.7,-0.06 l 1.55,-1.57 v -1.44 c -1.38,-0.47 -2.82,-0.52 -4.25,-0.15 -0.45,0.11 -0.9,0.27 -1.35,0.47 l -1.55,-0.9 -1.86,1.07 v 1.44 l 0.64,0.37 c -0.18,0.28 -0.27,0.56 -0.27,0.84 0,0.24 0,1.2 0,1.44 0,0.59 0.43,1.17 1.32,1.68 0.86,0.5 1.72,0.71 2.56,0.74 v 0 c 0.17,0.01 0.34,0.01 0.51,0 0.97,-0.05 1.9,-0.31 2.75,-0.59 0.18,-0.06 0.36,-0.12 0.54,-0.18 l -1.57,1.57 v 1.44 c 2.21,0.89 4.37,0.47 6,-0.26 l 1.54,0.89 1.86,-1.07 v -1.44 l -0.64,-0.37 c 0.19,-0.34 0.3,-0.65 0.3,-0.96 z m -3.91,-0.12 c -0.14,0.08 -0.29,0.15 -0.43,0.22 -1.1,0.47 -2.24,0.37 -3.03,0.04 1.45,-0.51 2.67,-0.96 3.7,-0.41 -0.08,0.05 -0.16,0.1 -0.24,0.15 z"
   id="path4030" />
			<g
   id="g4047">
				<g
   id="XMLID_00000104688026668025914410000008539861739176539042_">
					<g
   id="g4033">
						<path
   id="XMLID_434_"
   fill="#3d94ef"
   d="m 171.48,237.69 c 0,0 -0.01,0 -0.01,0 -0.64,0.16 -1.24,0.37 -1.79,0.56 -0.76,0.27 -1.39,0.48 -1.93,0.6 0,0 0,0 0,0 -0.33,0.07 -0.64,0.1 -0.92,0.09 -0.31,-0.02 -0.6,-0.1 -0.88,-0.26 -0.6,-0.34 -0.68,-0.85 0.18,-1.42 0.06,-0.04 0.12,-0.08 0.19,-0.12 0.17,-0.1 0.34,-0.18 0.51,-0.25 0.94,-0.4 1.85,-0.38 2.7,-0.06 l 1.55,-1.57 c -1.38,-0.47 -2.82,-0.52 -4.25,-0.15 -0.45,0.11 -0.9,0.27 -1.35,0.47 l -1.55,-0.9 -1.86,1.07 1.54,0.89 c 0,0 0,0 -0.01,0.01 -1.56,1.19 -1.59,2.41 0.16,3.43 0.86,0.5 1.72,0.71 2.56,0.74 v 0 c 0.17,0.01 0.34,0.01 0.51,0 0.97,-0.05 1.9,-0.31 2.75,-0.59 1.78,-0.6 3.22,-1.3 4.42,-0.6 0.8,0.46 0.58,1.05 -0.3,1.56 -0.14,0.08 -0.29,0.15 -0.43,0.22 -1.13,0.48 -2.29,0.37 -3.09,0.02 l -1.63,1.63 c 2.21,0.89 4.37,0.46 6,-0.26 l 1.54,0.89 1.86,-1.07 -1.54,-0.89 c 1.54,-1.19 1.72,-2.5 -0.08,-3.55 -0.01,-0.01 -0.02,-0.01 -0.03,-0.02 -1.64,-0.97 -3.33,-0.85 -4.82,-0.47 z" />
					</g>
				</g>
				<g
   id="XMLID_00000103227365517426779830000004896231482859690370_"
   opacity="0.3">
					<path
   id="XMLID_00000141423845646592343340000000785702892226165165_"
   fill="#ffffff"
   d="m 171.48,237.69 c 0,0 -0.01,0 -0.01,0 -0.64,0.16 -1.24,0.37 -1.79,0.56 -0.76,0.27 -1.39,0.48 -1.93,0.6 0,0 0,0 0,0 -0.33,0.07 -0.64,0.1 -0.92,0.09 -0.31,-0.02 -0.6,-0.1 -0.88,-0.26 -0.6,-0.34 -0.68,-0.85 0.18,-1.42 0.06,-0.04 0.12,-0.08 0.19,-0.12 0.17,-0.1 0.34,-0.18 0.51,-0.25 0.94,-0.4 1.85,-0.38 2.7,-0.06 l 1.55,-1.57 c -1.38,-0.47 -2.82,-0.52 -4.25,-0.15 -0.45,0.11 -0.9,0.27 -1.35,0.47 l -1.55,-0.9 -1.86,1.07 1.54,0.89 c 0,0 0,0 -0.01,0.01 -1.56,1.19 -1.59,2.41 0.16,3.43 0.86,0.5 1.72,0.71 2.56,0.74 v 0 c 0.17,0.01 0.34,0.01 0.51,0 0.97,-0.05 1.9,-0.31 2.75,-0.59 1.78,-0.6 3.22,-1.3 4.42,-0.6 0.8,0.46 0.58,1.05 -0.3,1.56 -0.14,0.08 -0.29,0.15 -0.43,0.22 -1.13,0.48 -2.29,0.37 -3.09,0.02 l -1.63,1.63 c 2.21,0.89 4.37,0.46 6,-0.26 l 1.54,0.89 1.86,-1.07 -1.54,-0.89 c 1.54,-1.19 1.72,-2.5 -0.08,-3.55 -0.01,-0.01 -0.02,-0.01 -0.03,-0.02 -1.64,-0.97 -3.33,-0.85 -4.82,-0.47 z" />
				</g>
				<g
   id="g4045">
					<polygon
   id="XMLID_00000066515752481465728490000010601961409204683671_"
   opacity="0.45"
   fill="#f5f5f5"
   points="165.47,235.56 163.92,234.66 162.06,235.74 163.94,234.89 " />
					<path
   id="XMLID_00000173861645315613463080000011055754835530883509_"
   opacity="0.45"
   fill="#f5f5f5"
   d="m 166.61,235.15 c 1,-0.22 2.62,-0.28 3.99,0.13 l -1.08,1.53 1.55,-1.57 c -1.65,-0.52 -3.12,-0.48 -4.46,-0.09 z" />
					<path
   id="XMLID_00000181065822146212370960000002715777678946064772_"
   opacity="0.45"
   fill="#f5f5f5"
   d="m 176.29,238.13 c 0.01,0.01 0.02,0.01 0.03,0.02 1.8,1.06 1.63,2.36 0.08,3.55 1.37,-1.49 1.12,-2.53 -0.37,-3.39 -1.48,-0.86 -3.38,-0.85 -4.56,-0.62 1.5,-0.38 3.19,-0.5 4.82,0.44 z" />
					<polygon
   id="XMLID_00000003821854838079178050000016216811520518133685_"
   opacity="0.45"
   fill="#f5f5f5"
   points="176.08,243.65 177.93,242.58 176.4,241.7 177.58,242.6 " />
					<path
   id="XMLID_00000101099490025832488740000001947255105217174712_"
   opacity="0.45"
   fill="#f5f5f5"
   d="m 173.27,241.37 c -1.63,0.77 -2.96,0.26 -2.96,0.26 l -1.76,1.4 1.63,-1.63 c 0.79,0.34 1.96,0.45 3.09,-0.03 z" />
					<path
   id="XMLID_00000137837275399687822180000002646879517193538210_"
   opacity="0.45"
   fill="#f5f5f5"
   d="m 167.74,238.84 c -0.7,0.28 -1.71,0.23 -2.22,-0.21 -0.54,-0.46 -0.19,-0.96 0.61,-1.38 -0.87,0.57 -0.78,1.07 -0.18,1.42 0.28,0.16 0.57,0.24 0.88,0.26 0.27,0.02 0.57,-0.02 0.91,-0.09 z" />
					<path
   id="XMLID_00000160151731238138276300000004130869339377836696_"
   opacity="0.45"
   fill="#f5f5f5"
   d="m 163.58,236.63 c -0.13,0.12 -1.25,1.16 -0.76,2.2 0.52,1.11 2.16,1.82 3.48,1.97 v 0 c -0.84,-0.03 -1.7,-0.24 -2.56,-0.74 -1.75,-1.01 -1.72,-2.24 -0.16,-3.43 z" />
				</g>
			</g>
		</g>
	</g><g
           id="Coin_00000176002915601192159410000010017466221300783253_"
           transform="matrix(0.6924531,0,0,0.6924531,-12.360314,-2.1520402)">
		<g
   id="XMLID_00000146489000773738300880000018337502445030669733_">
			<g
   id="XMLID_1481_">
				<path
   id="XMLID_143_"
   fill="#3d94ef"
   d="m 154.06,233.34 c 0.88,-1.48 2.33,-2.87 4.38,-4.05 7.15,-4.13 18.75,-4.13 25.91,0 2.04,1.18 3.5,2.57 4.38,4.05 h 0.99 v 3.74 h -0.01 c -0.13,2.6 -1.91,5.18 -5.35,7.17 -7.15,4.13 -18.75,4.13 -25.91,0 -3.44,-1.99 -5.23,-4.57 -5.37,-7.17 v 0 -3.74 z" />
				<path
   id="XMLID_1489_"
   opacity="0.25"
   d="m 154.06,233.34 c 0.88,-1.48 2.33,-2.87 4.38,-4.05 7.15,-4.13 18.75,-4.13 25.91,0 2.04,1.18 3.5,2.57 4.38,4.05 h 0.99 v 3.74 h -0.01 c -0.13,2.6 -1.91,5.18 -5.35,7.17 -7.15,4.13 -18.75,4.13 -25.91,0 -3.44,-1.99 -5.23,-4.57 -5.37,-7.17 v 0 -3.74 z" />
				<path
   id="XMLID_142_"
   opacity="0.1"
   d="m 171.39,226.2 c 4.69,0 9.38,1.03 12.96,3.1 2.04,1.18 3.5,2.57 4.38,4.05 h 0.99 v 3.74 h -0.01 c -0.13,2.6 -1.91,5.18 -5.35,7.17 -3.58,2.07 -8.27,3.1 -12.96,3.1 V 226.2 Z" />
				<path
   id="XMLID_141_"
   opacity="0.1"
   d="m 181.39,227.91 c 1.04,0.39 2.03,0.85 2.95,1.38 2.04,1.18 3.5,2.57 4.38,4.05 h 0.99 v 3.74 h -0.01 c -0.13,2.6 -1.91,5.18 -5.35,7.17 -0.92,0.53 -1.91,0.99 -2.95,1.38 v -17.72 z" />
				<path
   id="XMLID_00000070111939579698687200000010224096504578254771_"
   fill="#3d94ef"
   d="m 161.38,227.91 c -1.04,0.39 -2.03,0.85 -2.95,1.38 -2.04,1.18 -3.5,2.57 -4.38,4.05 h -0.99 v 3.74 0 c 0.13,2.6 1.93,5.18 5.37,7.17 0.92,0.53 1.91,0.99 2.95,1.38 z" />
			</g>
			<g
   id="XMLID_00000093862272411855920340000015994792163149998986_">
				<g
   id="g4062">
					<g
   id="g4060">
						<path
   id="XMLID_00000078019043012590657290000011320607679369561482_"
   fill="#3d94ef"
   d="m 184.34,225.86 c 7.15,4.13 7.15,10.83 0,14.96 -6.26,3.61 -15.92,4.07 -23.03,1.36 v 0 c -0.09,-0.04 -0.19,-0.07 -0.28,-0.11 -0.91,-0.36 -1.78,-0.78 -2.59,-1.24 -5.97,-3.44 -6.96,-8.67 -2.97,-12.71 0,0 0,0 0,0 0.79,-0.8 1.78,-1.56 2.97,-2.25 7.15,-4.14 18.75,-4.14 25.9,-0.01 z" />
						<path
   id="XMLID_00000108301986033720288940000009852896811086107069_"
   opacity="0.2"
   d="m 184.34,225.86 c 7.15,4.13 7.15,10.83 0,14.96 -6.26,3.61 -15.92,4.07 -23.03,1.36 v 0 c -0.09,-0.04 -0.19,-0.07 -0.28,-0.11 -0.91,-0.36 -1.78,-0.78 -2.59,-1.24 -5.97,-3.44 -6.96,-8.67 -2.97,-12.71 0,0 0,0 0,0 0.79,-0.8 1.78,-1.56 2.97,-2.25 7.15,-4.14 18.75,-4.14 25.9,-0.01 z" />
					</g>
				</g>
				<g
   id="g4066">
					<path
   id="XMLID_00000102545050745383778470000018270922683900650921_"
   opacity="0.5"
   fill="#f5f5f5"
   d="m 155.46,228.11 c -0.08,0.09 -2.58,2.73 -1.92,6.53 0.63,3.64 5.72,6.69 7.48,7.43 -0.91,-0.36 -1.78,-0.78 -2.59,-1.24 -5.96,-3.45 -6.95,-8.68 -2.97,-12.72 z" />
					<path
   id="XMLID_00000163037182261095277920000013195055092090572689_"
   opacity="0.5"
   fill="#f5f5f5"
   d="m 187.31,238.57 c 0.08,-0.09 2.58,-2.73 1.92,-6.53 -0.63,-3.64 -5.72,-6.7 -7.48,-7.43 0.91,0.36 1.78,0.78 2.59,1.24 5.97,3.46 6.96,8.69 2.97,12.72 z" />
				</g>
			</g>
		</g>
		<g
   id="g4090">
			<g
   id="XMLID_139_">
				<ellipse
   fill="#3d94ef"
   cx="171.39"
   cy="233.33"
   rx="17.030001"
   ry="9.8299999"
   id="ellipse4070" />
				<ellipse
   opacity="0.4"
   fill="#ffffff"
   cx="171.39"
   cy="233.33"
   rx="17.030001"
   ry="9.8299999"
   id="ellipse4072" />
				<path
   id="XMLID_00000177478647152486210490000000005667176967919539_"
   opacity="0.2"
   fill="#ffffff"
   d="m 155.14,236.26 c -1.37,-2.53 -0.92,-5.32 1.34,-7.69 0.42,-0.44 0.9,-0.86 1.44,-1.26 0.42,-0.32 0.88,-0.62 1.38,-0.91 0.27,-0.16 0.55,-0.31 0.84,-0.45 -0.71,1.16 -0.45,2.41 3.56,2.65 7.85,0.46 -2.1,7.96 -2.1,7.96 0,0 -5.06,-2.44 -6.46,-0.3 z" />
				<path
   id="XMLID_00000093896723523682461760000007710220840462018703_"
   opacity="0.5"
   fill="#ffffff"
   d="m 155.95,234.19 c -1.18,-0.13 -1.76,-1.34 -1.3,-2.71 0.46,-1.36 1.78,-2.36 2.96,-2.23 1.18,0.13 1.76,1.34 1.3,2.71 -0.46,1.36 -1.78,2.36 -2.96,2.23 z" />
				<path
   id="XMLID_00000036967860311541394730000000619562925727131058_"
   fill="#3d94ef"
   d="m 168.36,240.44 c 0.39,-2.91 13.13,-10.98 13.13,-10.98 0,0 2.83,-1.13 1.89,-3.11 0.49,0.28 0.94,0.58 1.36,0.88 0.29,0.21 0.57,0.43 0.83,0.66 3.79,3.28 3.8,7.6 0,10.89 -0.26,0.22 -0.53,0.44 -0.83,0.66 -0.39,0.28 -0.81,0.56 -1.26,0.82 -0.43,0.25 -0.88,0.49 -1.35,0.71 -0.37,0.18 -0.76,0.34 -1.15,0.49 -0.39,0.15 -0.79,0.3 -1.19,0.43 -1.21,0.4 -2.49,0.7 -3.8,0.91 -0.28,0.05 -0.57,0.09 -0.85,0.12 -1.25,0.16 -2.53,0.24 -3.8,0.24 -1.57,0 -3.13,-0.13 -4.65,-0.38 -0.01,0 2.04,-0.42 1.67,-2.34 z" />
				<path
   id="XMLID_00000090276525855478169960000004656897298675180732_"
   opacity="0.3"
   fill="#ffffff"
   d="m 168.36,240.44 c 0.39,-2.91 13.13,-10.98 13.13,-10.98 0,0 2.83,-1.13 1.89,-3.11 0.49,0.28 0.94,0.58 1.36,0.88 0.29,0.21 0.57,0.43 0.83,0.66 3.79,3.28 3.8,7.6 0,10.89 -0.26,0.22 -0.53,0.44 -0.83,0.66 -0.39,0.28 -0.81,0.56 -1.26,0.82 -0.43,0.25 -0.88,0.49 -1.35,0.71 -0.37,0.18 -0.76,0.34 -1.15,0.49 -0.39,0.15 -0.79,0.3 -1.19,0.43 -1.21,0.4 -2.49,0.7 -3.8,0.91 -0.28,0.05 -0.57,0.09 -0.85,0.12 -1.25,0.16 -2.53,0.24 -3.8,0.24 -1.57,0 -3.13,-0.13 -4.65,-0.38 -0.01,0 2.04,-0.42 1.67,-2.34 z" />
				<path
   id="XMLID_1399_"
   fill="#3d94ef"
   d="m 180.37,228.15 c 4.75,2.74 4.95,7.12 0.58,10 -0.19,0.12 -0.38,0.24 -0.58,0.36 -4.95,2.86 -12.99,2.86 -17.94,0 -4.95,-2.86 -4.96,-7.5 0,-10.36 0.2,-0.12 0.41,-0.23 0.62,-0.34 4.98,-2.52 12.57,-2.41 17.32,0.34 z" />
				<path
   id="XMLID_140_"
   opacity="0.2"
   d="m 180.37,228.15 c 4.75,2.74 4.95,7.12 0.58,10 -0.19,0.12 -0.38,0.24 -0.58,0.36 -4.95,2.86 -12.99,2.86 -17.94,0 -4.95,-2.86 -4.96,-7.5 0,-10.36 0.2,-0.12 0.41,-0.23 0.62,-0.34 4.98,-2.52 12.57,-2.41 17.32,0.34 z" />
				<ellipse
   fill="#3d94ef"
   cx="171.39"
   cy="233.33"
   rx="12.13"
   ry="7"
   id="ellipse4080" />
				<ellipse
   opacity="0.5"
   cx="171.39"
   cy="233.33"
   rx="12.13"
   ry="7"
   id="ellipse4082" />
				<path
   fill="#3d94ef"
   d="m 179.97,230.33 c -4.74,-2.73 -12.41,-2.73 -17.15,0 -1.94,1.12 -3.08,2.52 -3.43,3.97 0.35,1.45 1.5,2.86 3.43,3.97 4.74,2.73 12.41,2.73 17.15,0 1.94,-1.12 3.08,-2.52 3.43,-3.97 -0.35,-1.45 -1.49,-2.85 -3.43,-3.97 z"
   id="path4084" />
				<path
   opacity="0.35"
   d="m 179.97,230.33 c -4.74,-2.73 -12.41,-2.73 -17.15,0 -1.94,1.12 -3.08,2.52 -3.43,3.97 0.35,1.45 1.5,2.86 3.43,3.97 4.74,2.73 12.41,2.73 17.15,0 1.94,-1.12 3.08,-2.52 3.43,-3.97 -0.35,-1.45 -1.49,-2.85 -3.43,-3.97 z"
   id="path4086" />
			</g>
			<polygon
   id="XMLID_00000067938266104530296520000008723836425605707193_"
   fill="#ffffff"
   points="155.21,232.01 149.14,231.75 155.21,231.48 155.67,227.97 156.13,231.48 162.2,231.75 156.13,232.01 155.67,235.52 " />
		</g>
	</g><g
           id="g9396"
           transform="matrix(0.66885831,0.17922005,-0.17922005,0.66885831,33.612649,-26.540149)"
           style="fill:#1e4a77;fill-opacity:1">
	<g
   id="g9394"
   style="fill:#1e4a77;fill-opacity:1">
		<g
   id="g9392"
   style="fill:#1e4a77;fill-opacity:1">
			<g
   id="g9390"
   style="fill:#1e4a77;fill-opacity:1">
				<path
   fill="#3d94ef"
   d="m 173.91,228.02 h -3.09 c -1.18,0 -2.14,0.96 -2.14,2.14 v 0.88 h -0.91 c -1.18,0 -2.14,0.96 -2.14,2.14 v 3.07 c 0,1.18 0.96,2.14 2.14,2.14 h 3.09 c 1.18,0 2.14,-0.96 2.14,-2.14 v -0.88 h 0.91 c 1.18,0 2.14,-0.96 2.14,-2.14 v -3.07 c 0,-1.18 -0.96,-2.14 -2.14,-2.14 z m -2.19,8.22 c 0,0.47 -0.38,0.85 -0.85,0.85 h -3.09 c -0.47,0 -0.85,-0.38 -0.85,-0.85 v -3.07 c 0,-0.47 0.38,-0.85 0.85,-0.85 h 0.91 1.28 0.84 l -0.84,0.87 -1.02,1.06 -0.07,0.07 c -0.37,0.38 -0.1,1.04 0.44,1.04 h 1.25 c 0.08,0.01 0.17,0 0.26,0 h 0.9 v 0.88 z m 3.05,-3.01 c 0,0.47 -0.38,0.85 -0.85,0.85 h -0.92 -1.28 -0.9 c -0.01,0 -0.02,0 -0.03,0 l 0.94,-0.92 1.02,-1.01 0.08,-0.08 c 0.38,-0.38 0.12,-1.03 -0.42,-1.03 h -1.36 c -0.06,0 -0.11,-0.01 -0.17,-0.01 h -0.9 v -0.88 c 0,-0.47 0.38,-0.85 0.85,-0.85 h 3.09 c 0.47,0 0.85,0.38 0.85,0.85 z"
   id="path9388"
   style="fill:#1e4a77;fill-opacity:1" />
			</g>
		</g>
	</g>
</g><g
           id="g4103"
           transform="matrix(0.66885831,0.17922005,-0.17922005,0.66885831,33.492411,-26.847661)">
	<g
   id="g4101">
		<g
   id="g4099">
			<g
   id="g4097">
				<path
   fill="#3d94ef"
   d="m 173.91,228.02 h -3.09 c -1.18,0 -2.14,0.96 -2.14,2.14 v 0.88 h -0.91 c -1.18,0 -2.14,0.96 -2.14,2.14 v 3.07 c 0,1.18 0.96,2.14 2.14,2.14 h 3.09 c 1.18,0 2.14,-0.96 2.14,-2.14 v -0.88 h 0.91 c 1.18,0 2.14,-0.96 2.14,-2.14 v -3.07 c 0,-1.18 -0.96,-2.14 -2.14,-2.14 z m -2.19,8.22 c 0,0.47 -0.38,0.85 -0.85,0.85 h -3.09 c -0.47,0 -0.85,-0.38 -0.85,-0.85 v -3.07 c 0,-0.47 0.38,-0.85 0.85,-0.85 h 0.91 1.28 0.84 l -0.84,0.87 -1.02,1.06 -0.07,0.07 c -0.37,0.38 -0.1,1.04 0.44,1.04 h 1.25 c 0.08,0.01 0.17,0 0.26,0 h 0.9 v 0.88 z m 3.05,-3.01 c 0,0.47 -0.38,0.85 -0.85,0.85 h -0.92 -1.28 -0.9 c -0.01,0 -0.02,0 -0.03,0 l 0.94,-0.92 1.02,-1.01 0.08,-0.08 c 0.38,-0.38 0.12,-1.03 -0.42,-1.03 h -1.36 c -0.06,0 -0.11,-0.01 -0.17,-0.01 h -0.9 v -0.88 c 0,-0.47 0.38,-0.85 0.85,-0.85 h 3.09 c 0.47,0 0.85,0.38 0.85,0.85 z"
   id="path4095" />
			</g>
		</g>
	</g>
</g><path
           id="path13160"
           fill="url(#Shadow_3_)"
           d="m 96.329767,176.91319 c -7.3446,-4.24375 -7.3446,-11.11879 0,-15.35367 7.344603,-4.24375 19.251883,-4.24375 26.596493,0 7.3446,4.24374 7.3446,11.11878 0,15.35367 -7.34461,4.23488 -19.25189,4.23488 -26.596493,0 z"
           style="fill:url(#linearGradient13694);stroke-width:0.885954;filter:url(#filter14337)" /><g
           id="g13250"
           transform="matrix(0.88595898,0,0,0.88595898,-41.963624,-47.546918)">
		<g
   id="g13190">
			<g
   id="g13172">
				<path
   id="path13162"
   fill="#3d94ef"
   d="m 187.3,239.18 c -0.88,-1.48 -2.33,-2.87 -4.38,-4.05 -7.15,-4.13 -18.75,-4.13 -25.91,0 -2.04,1.18 -3.5,2.57 -4.38,4.05 h -0.99 v 3.74 h 0.01 c 0.13,2.6 1.91,5.18 5.35,7.17 7.15,4.13 18.75,4.13 25.91,0 3.44,-1.99 5.23,-4.57 5.37,-7.17 v 0 -3.74 z" />
				<path
   id="path13164"
   opacity="0.25"
   d="m 187.3,239.18 c -0.88,-1.48 -2.33,-2.87 -4.38,-4.05 -7.15,-4.13 -18.75,-4.13 -25.91,0 -2.04,1.18 -3.5,2.57 -4.38,4.05 h -0.99 v 3.74 h 0.01 c 0.13,2.6 1.91,5.18 5.35,7.17 7.15,4.13 18.75,4.13 25.91,0 3.44,-1.99 5.23,-4.57 5.37,-7.17 v 0 -3.74 z" />
				<path
   id="path13166"
   opacity="0.1"
   d="m 169.97,232.04 c -4.69,0 -9.38,1.03 -12.96,3.1 -2.04,1.18 -3.5,2.57 -4.38,4.05 h -0.99 v 3.74 h 0.01 c 0.13,2.6 1.91,5.18 5.35,7.17 3.58,2.07 8.27,3.1 12.96,3.1 v -21.16 z" />
				<path
   id="path13168"
   opacity="0.1"
   d="m 159.96,233.76 c -1.04,0.39 -2.03,0.85 -2.95,1.38 -2.04,1.18 -3.5,2.57 -4.38,4.05 h -0.99 v 3.74 h 0.01 c 0.13,2.6 1.91,5.18 5.35,7.17 0.92,0.53 1.91,0.99 2.95,1.38 v -17.72 z" />
				<path
   id="path13170"
   fill="#3d94ef"
   d="m 179.97,233.76 c 1.04,0.39 2.03,0.85 2.95,1.38 2.04,1.18 3.5,2.57 4.38,4.05 h 0.99 v 3.74 0 c -0.13,2.6 -1.93,5.18 -5.37,7.17 -0.92,0.53 -1.91,0.99 -2.95,1.38 z" />
			</g>
			<g
   id="g13188">
				<g
   id="g13180">
					<g
   id="g13178">
						<path
   id="path13174"
   fill="#3d94ef"
   d="m 157.01,231.71 c -7.15,4.13 -7.15,10.83 0,14.96 6.26,3.61 15.92,4.07 23.03,1.36 v 0 c 0.09,-0.04 0.19,-0.07 0.28,-0.11 0.91,-0.36 1.78,-0.78 2.59,-1.24 5.97,-3.44 6.96,-8.67 2.97,-12.71 0,0 0,0 0,0 -0.79,-0.8 -1.78,-1.56 -2.97,-2.25 -7.14,-4.14 -18.74,-4.14 -25.9,-0.01 z" />
						<path
   id="path13176"
   opacity="0.2"
   d="m 157.01,231.71 c -7.15,4.13 -7.15,10.83 0,14.96 6.26,3.61 15.92,4.07 23.03,1.36 v 0 c 0.09,-0.04 0.19,-0.07 0.28,-0.11 0.91,-0.36 1.78,-0.78 2.59,-1.24 5.97,-3.44 6.96,-8.67 2.97,-12.71 0,0 0,0 0,0 -0.79,-0.8 -1.78,-1.56 -2.97,-2.25 -7.14,-4.14 -18.74,-4.14 -25.9,-0.01 z" />
					</g>
				</g>
				<g
   id="g13186">
					<path
   id="path13182"
   opacity="0.5"
   fill="#f5f5f5"
   d="m 185.89,233.95 c 0.08,0.09 2.58,2.73 1.92,6.53 -0.63,3.64 -5.72,6.7 -7.48,7.43 0.91,-0.36 1.78,-0.78 2.59,-1.24 5.97,-3.45 6.96,-8.68 2.97,-12.72 z" />
					<path
   id="path13184"
   opacity="0.5"
   fill="#f5f5f5"
   d="m 154.04,244.42 c -0.08,-0.09 -2.58,-2.73 -1.92,-6.53 0.63,-3.64 5.72,-6.69 7.48,-7.43 -0.91,0.36 -1.78,0.78 -2.59,1.24 -5.96,3.45 -6.96,8.68 -2.97,12.72 z" />
				</g>
			</g>
		</g>
		<g
   id="g13248">
			<g
   id="g13216">
				<ellipse
   fill="#3d94ef"
   cx="169.97"
   cy="239.17"
   rx="17.030001"
   ry="9.8299999"
   id="ellipse13192" />
				<ellipse
   opacity="0.4"
   fill="#ffffff"
   cx="169.97"
   cy="239.17"
   rx="17.030001"
   ry="9.8299999"
   id="ellipse13194" />
				<path
   id="path13196"
   opacity="0.2"
   fill="#ffffff"
   d="m 186.23,242.11 c 1.37,-2.53 0.92,-5.32 -1.34,-7.69 -0.42,-0.44 -0.9,-0.86 -1.44,-1.26 -0.42,-0.32 -0.88,-0.62 -1.38,-0.91 -0.27,-0.16 -0.55,-0.31 -0.84,-0.45 0.71,1.16 0.45,2.41 -3.56,2.65 -7.85,0.46 2.1,7.96 2.1,7.96 0,0 5.06,-2.45 6.46,-0.3 z" />
				<path
   id="path13198"
   opacity="0.5"
   fill="#ffffff"
   d="m 185.42,240.03 c 1.18,-0.13 1.76,-1.34 1.3,-2.71 -0.46,-1.36 -1.78,-2.36 -2.96,-2.23 -1.18,0.13 -1.76,1.34 -1.3,2.71 0.46,1.37 1.78,2.36 2.96,2.23 z" />
				<path
   id="path13200"
   fill="#3d94ef"
   d="m 173,246.28 c -0.39,-2.91 -13.13,-10.98 -13.13,-10.98 0,0 -2.83,-1.13 -1.89,-3.11 -0.49,0.28 -0.94,0.58 -1.36,0.88 -0.29,0.21 -0.57,0.43 -0.83,0.66 -3.79,3.28 -3.8,7.6 0,10.89 0.26,0.22 0.53,0.44 0.83,0.66 0.39,0.28 0.81,0.56 1.26,0.82 0.43,0.25 0.88,0.49 1.35,0.71 0.37,0.18 0.76,0.34 1.15,0.49 0.39,0.15 0.79,0.3 1.19,0.43 1.21,0.4 2.49,0.7 3.8,0.91 0.28,0.05 0.57,0.09 0.86,0.12 1.25,0.16 2.53,0.24 3.8,0.24 1.57,0 3.13,-0.13 4.65,-0.38 0.01,0 -2.04,-0.42 -1.68,-2.34 z" />
				<path
   id="path13202"
   opacity="0.3"
   fill="#ffffff"
   d="m 173,246.28 c -0.39,-2.91 -13.13,-10.98 -13.13,-10.98 0,0 -2.83,-1.13 -1.89,-3.11 -0.49,0.28 -0.94,0.58 -1.36,0.88 -0.29,0.21 -0.57,0.43 -0.83,0.66 -3.79,3.28 -3.8,7.6 0,10.89 0.26,0.22 0.53,0.44 0.83,0.66 0.39,0.28 0.81,0.56 1.26,0.82 0.43,0.25 0.88,0.49 1.35,0.71 0.37,0.18 0.76,0.34 1.15,0.49 0.39,0.15 0.79,0.3 1.19,0.43 1.21,0.4 2.49,0.7 3.8,0.91 0.28,0.05 0.57,0.09 0.86,0.12 1.25,0.16 2.53,0.24 3.8,0.24 1.57,0 3.13,-0.13 4.65,-0.38 0.01,0 -2.04,-0.42 -1.68,-2.34 z" />
				<path
   id="path13204"
   fill="#3d94ef"
   d="m 161,233.99 c -4.75,2.74 -4.95,7.12 -0.58,10 0.19,0.12 0.38,0.24 0.58,0.36 4.95,2.86 12.99,2.86 17.94,0 4.95,-2.86 4.96,-7.5 0,-10.36 -0.2,-0.12 -0.41,-0.23 -0.62,-0.34 -4.99,-2.52 -12.57,-2.4 -17.32,0.34 z" />
				<path
   id="path13206"
   opacity="0.2"
   d="m 161,233.99 c -4.75,2.74 -4.95,7.12 -0.58,10 0.19,0.12 0.38,0.24 0.58,0.36 4.95,2.86 12.99,2.86 17.94,0 4.95,-2.86 4.96,-7.5 0,-10.36 -0.2,-0.12 -0.41,-0.23 -0.62,-0.34 -4.99,-2.52 -12.57,-2.4 -17.32,0.34 z" />
				<ellipse
   fill="#3d94ef"
   cx="169.97"
   cy="239.17"
   rx="12.13"
   ry="7"
   id="ellipse13208" />
				<ellipse
   opacity="0.5"
   cx="169.97"
   cy="239.17"
   rx="12.13"
   ry="7"
   id="ellipse13210" />
				<path
   fill="#3d94ef"
   d="m 161.4,236.17 c 4.74,-2.73 12.41,-2.73 17.15,0 1.94,1.12 3.08,2.52 3.43,3.97 -0.35,1.45 -1.5,2.86 -3.43,3.97 -4.74,2.73 -12.41,2.73 -17.15,0 -1.94,-1.12 -3.08,-2.52 -3.43,-3.97 0.35,-1.45 1.49,-2.85 3.43,-3.97 z"
   id="path13212" />
				<path
   opacity="0.35"
   d="m 161.4,236.17 c 4.74,-2.73 12.41,-2.73 17.15,0 1.94,1.12 3.08,2.52 3.43,3.97 -0.35,1.45 -1.5,2.86 -3.43,3.97 -4.74,2.73 -12.41,2.73 -17.15,0 -1.94,-1.12 -3.08,-2.52 -3.43,-3.97 0.35,-1.45 1.49,-2.85 3.43,-3.97 z"
   id="path13214" />
			</g>
			<path
   fill="#3d94ef"
   d="m 177.61,241.28 c 0,-0.24 0,-1.2 0,-1.45 0,-0.59 -0.41,-1.17 -1.29,-1.69 -0.01,-0.01 -0.02,-0.01 -0.03,-0.02 -1.63,-0.94 -3.31,-0.82 -4.81,-0.44 0,0 -0.01,0 -0.01,0 -0.64,0.16 -1.24,0.37 -1.79,0.56 -0.76,0.27 -1.39,0.48 -1.93,0.6 0,0 0,0 0,0 -0.33,0.07 -0.64,0.1 -0.92,0.09 -0.27,-0.02 -0.52,-0.08 -0.76,-0.2 0.02,-0.01 0.04,-0.03 0.06,-0.04 0.06,-0.04 0.12,-0.08 0.19,-0.12 0.17,-0.1 0.34,-0.18 0.51,-0.25 0.94,-0.4 1.85,-0.38 2.7,-0.06 l 1.55,-1.57 v -1.44 c -1.38,-0.47 -2.82,-0.52 -4.25,-0.15 -0.45,0.11 -0.9,0.27 -1.35,0.47 l -1.55,-0.9 -1.86,1.07 v 1.44 l 0.64,0.37 c -0.18,0.28 -0.27,0.56 -0.27,0.84 0,0.24 0,1.2 0,1.44 0,0.59 0.43,1.17 1.32,1.68 0.86,0.5 1.72,0.71 2.56,0.74 v 0 c 0.17,0.01 0.34,0.01 0.51,0 0.97,-0.05 1.9,-0.31 2.75,-0.59 0.18,-0.06 0.36,-0.12 0.54,-0.18 l -1.57,1.57 v 1.44 c 2.21,0.89 4.37,0.47 6,-0.26 l 1.54,0.89 1.86,-1.07 v -1.44 l -0.64,-0.37 c 0.19,-0.34 0.3,-0.65 0.3,-0.96 z m -3.91,-0.12 c -0.14,0.08 -0.29,0.15 -0.43,0.22 -1.1,0.47 -2.24,0.37 -3.03,0.04 1.45,-0.51 2.67,-0.96 3.7,-0.41 -0.08,0.05 -0.16,0.1 -0.24,0.15 z"
   id="path13218" />
			<g
   id="g13246">
				<g
   id="g13224">
					<g
   id="g13222">
						<path
   id="path13220"
   fill="#3d94ef"
   d="m 171.48,237.69 c 0,0 -0.01,0 -0.01,0 -0.64,0.16 -1.24,0.37 -1.79,0.56 -0.76,0.27 -1.39,0.48 -1.93,0.6 0,0 0,0 0,0 -0.33,0.07 -0.64,0.1 -0.92,0.09 -0.31,-0.02 -0.6,-0.1 -0.88,-0.26 -0.6,-0.34 -0.68,-0.85 0.18,-1.42 0.06,-0.04 0.12,-0.08 0.19,-0.12 0.17,-0.1 0.34,-0.18 0.51,-0.25 0.94,-0.4 1.85,-0.38 2.7,-0.06 l 1.55,-1.57 c -1.38,-0.47 -2.82,-0.52 -4.25,-0.15 -0.45,0.11 -0.9,0.27 -1.35,0.47 l -1.55,-0.9 -1.86,1.07 1.54,0.89 c 0,0 0,0 -0.01,0.01 -1.56,1.19 -1.59,2.41 0.16,3.43 0.86,0.5 1.72,0.71 2.56,0.74 v 0 c 0.17,0.01 0.34,0.01 0.51,0 0.97,-0.05 1.9,-0.31 2.75,-0.59 1.78,-0.6 3.22,-1.3 4.42,-0.6 0.8,0.46 0.58,1.05 -0.3,1.56 -0.14,0.08 -0.29,0.15 -0.43,0.22 -1.13,0.48 -2.29,0.37 -3.09,0.02 l -1.63,1.63 c 2.21,0.89 4.37,0.46 6,-0.26 l 1.54,0.89 1.86,-1.07 -1.54,-0.89 c 1.54,-1.19 1.72,-2.5 -0.08,-3.55 -0.01,-0.01 -0.02,-0.01 -0.03,-0.02 -1.64,-0.97 -3.33,-0.85 -4.82,-0.47 z" />
					</g>
				</g>
				<g
   id="g13228"
   opacity="0.3">
					<path
   id="path13226"
   fill="#ffffff"
   d="m 171.48,237.69 c 0,0 -0.01,0 -0.01,0 -0.64,0.16 -1.24,0.37 -1.79,0.56 -0.76,0.27 -1.39,0.48 -1.93,0.6 0,0 0,0 0,0 -0.33,0.07 -0.64,0.1 -0.92,0.09 -0.31,-0.02 -0.6,-0.1 -0.88,-0.26 -0.6,-0.34 -0.68,-0.85 0.18,-1.42 0.06,-0.04 0.12,-0.08 0.19,-0.12 0.17,-0.1 0.34,-0.18 0.51,-0.25 0.94,-0.4 1.85,-0.38 2.7,-0.06 l 1.55,-1.57 c -1.38,-0.47 -2.82,-0.52 -4.25,-0.15 -0.45,0.11 -0.9,0.27 -1.35,0.47 l -1.55,-0.9 -1.86,1.07 1.54,0.89 c 0,0 0,0 -0.01,0.01 -1.56,1.19 -1.59,2.41 0.16,3.43 0.86,0.5 1.72,0.71 2.56,0.74 v 0 c 0.17,0.01 0.34,0.01 0.51,0 0.97,-0.05 1.9,-0.31 2.75,-0.59 1.78,-0.6 3.22,-1.3 4.42,-0.6 0.8,0.46 0.58,1.05 -0.3,1.56 -0.14,0.08 -0.29,0.15 -0.43,0.22 -1.13,0.48 -2.29,0.37 -3.09,0.02 l -1.63,1.63 c 2.21,0.89 4.37,0.46 6,-0.26 l 1.54,0.89 1.86,-1.07 -1.54,-0.89 c 1.54,-1.19 1.72,-2.5 -0.08,-3.55 -0.01,-0.01 -0.02,-0.01 -0.03,-0.02 -1.64,-0.97 -3.33,-0.85 -4.82,-0.47 z" />
				</g>
				<g
   id="g13244">
					<polygon
   id="polygon13230"
   opacity="0.45"
   fill="#f5f5f5"
   points="162.06,235.74 163.94,234.89 165.47,235.56 163.92,234.66 " />
					<path
   id="path13232"
   opacity="0.45"
   fill="#f5f5f5"
   d="m 166.61,235.15 c 1,-0.22 2.62,-0.28 3.99,0.13 l -1.08,1.53 1.55,-1.57 c -1.65,-0.52 -3.12,-0.48 -4.46,-0.09 z" />
					<path
   id="path13234"
   opacity="0.45"
   fill="#f5f5f5"
   d="m 176.29,238.13 c 0.01,0.01 0.02,0.01 0.03,0.02 1.8,1.06 1.63,2.36 0.08,3.55 1.37,-1.49 1.12,-2.53 -0.37,-3.39 -1.48,-0.86 -3.38,-0.85 -4.56,-0.62 1.5,-0.38 3.19,-0.5 4.82,0.44 z" />
					<polygon
   id="polygon13236"
   opacity="0.45"
   fill="#f5f5f5"
   points="176.4,241.7 177.58,242.6 176.08,243.65 177.93,242.58 " />
					<path
   id="path13238"
   opacity="0.45"
   fill="#f5f5f5"
   d="m 173.27,241.37 c -1.63,0.77 -2.96,0.26 -2.96,0.26 l -1.76,1.4 1.63,-1.63 c 0.79,0.34 1.96,0.45 3.09,-0.03 z" />
					<path
   id="path13240"
   opacity="0.45"
   fill="#f5f5f5"
   d="m 167.74,238.84 c -0.7,0.28 -1.71,0.23 -2.22,-0.21 -0.54,-0.46 -0.19,-0.96 0.61,-1.38 -0.87,0.57 -0.78,1.07 -0.18,1.42 0.28,0.16 0.57,0.24 0.88,0.26 0.27,0.02 0.57,-0.02 0.91,-0.09 z" />
					<path
   id="path13242"
   opacity="0.45"
   fill="#f5f5f5"
   d="m 163.58,236.63 c -0.13,0.12 -1.25,1.16 -0.76,2.2 0.52,1.11 2.16,1.82 3.48,1.97 v 0 c -0.84,-0.03 -1.7,-0.24 -2.56,-0.74 -1.75,-1.01 -1.72,-2.24 -0.16,-3.43 z" />
				</g>
			</g>
		</g>
	</g><g
           id="g13312"
           transform="matrix(0.88595898,0,0,0.88595898,-41.963624,-47.546918)">
		<g
   id="g13280">
			<g
   id="g13262">
				<path
   id="path13252"
   fill="#3d94ef"
   d="m 154.06,233.34 c 0.88,-1.48 2.33,-2.87 4.38,-4.05 7.15,-4.13 18.75,-4.13 25.91,0 2.04,1.18 3.5,2.57 4.38,4.05 h 0.99 v 3.74 h -0.01 c -0.13,2.6 -1.91,5.18 -5.35,7.17 -7.15,4.13 -18.75,4.13 -25.91,0 -3.44,-1.99 -5.23,-4.57 -5.37,-7.17 v 0 -3.74 z" />
				<path
   id="path13254"
   opacity="0.25"
   d="m 154.06,233.34 c 0.88,-1.48 2.33,-2.87 4.38,-4.05 7.15,-4.13 18.75,-4.13 25.91,0 2.04,1.18 3.5,2.57 4.38,4.05 h 0.99 v 3.74 h -0.01 c -0.13,2.6 -1.91,5.18 -5.35,7.17 -7.15,4.13 -18.75,4.13 -25.91,0 -3.44,-1.99 -5.23,-4.57 -5.37,-7.17 v 0 -3.74 z" />
				<path
   id="path13256"
   opacity="0.1"
   d="m 171.39,226.2 c 4.69,0 9.38,1.03 12.96,3.1 2.04,1.18 3.5,2.57 4.38,4.05 h 0.99 v 3.74 h -0.01 c -0.13,2.6 -1.91,5.18 -5.35,7.17 -3.58,2.07 -8.27,3.1 -12.96,3.1 V 226.2 Z" />
				<path
   id="path13258"
   opacity="0.1"
   d="m 181.39,227.91 c 1.04,0.39 2.03,0.85 2.95,1.38 2.04,1.18 3.5,2.57 4.38,4.05 h 0.99 v 3.74 h -0.01 c -0.13,2.6 -1.91,5.18 -5.35,7.17 -0.92,0.53 -1.91,0.99 -2.95,1.38 v -17.72 z" />
				<path
   id="path13260"
   fill="#3d94ef"
   d="m 161.38,227.91 c -1.04,0.39 -2.03,0.85 -2.95,1.38 -2.04,1.18 -3.5,2.57 -4.38,4.05 h -0.99 v 3.74 0 c 0.13,2.6 1.93,5.18 5.37,7.17 0.92,0.53 1.91,0.99 2.95,1.38 z" />
			</g>
			<g
   id="g13278">
				<g
   id="g13270">
					<g
   id="g13268">
						<path
   id="path13264"
   fill="#3d94ef"
   d="m 184.34,225.86 c 7.15,4.13 7.15,10.83 0,14.96 -6.26,3.61 -15.92,4.07 -23.03,1.36 v 0 c -0.09,-0.04 -0.19,-0.07 -0.28,-0.11 -0.91,-0.36 -1.78,-0.78 -2.59,-1.24 -5.97,-3.44 -6.96,-8.67 -2.97,-12.71 0,0 0,0 0,0 0.79,-0.8 1.78,-1.56 2.97,-2.25 7.15,-4.14 18.75,-4.14 25.9,-0.01 z" />
						<path
   id="path13266"
   opacity="0.2"
   d="m 184.34,225.86 c 7.15,4.13 7.15,10.83 0,14.96 -6.26,3.61 -15.92,4.07 -23.03,1.36 v 0 c -0.09,-0.04 -0.19,-0.07 -0.28,-0.11 -0.91,-0.36 -1.78,-0.78 -2.59,-1.24 -5.97,-3.44 -6.96,-8.67 -2.97,-12.71 0,0 0,0 0,0 0.79,-0.8 1.78,-1.56 2.97,-2.25 7.15,-4.14 18.75,-4.14 25.9,-0.01 z" />
					</g>
				</g>
				<g
   id="g13276">
					<path
   id="path13272"
   opacity="0.5"
   fill="#f5f5f5"
   d="m 155.46,228.11 c -0.08,0.09 -2.58,2.73 -1.92,6.53 0.63,3.64 5.72,6.69 7.48,7.43 -0.91,-0.36 -1.78,-0.78 -2.59,-1.24 -5.96,-3.45 -6.95,-8.68 -2.97,-12.72 z" />
					<path
   id="path13274"
   opacity="0.5"
   fill="#f5f5f5"
   d="m 187.31,238.57 c 0.08,-0.09 2.58,-2.73 1.92,-6.53 -0.63,-3.64 -5.72,-6.7 -7.48,-7.43 0.91,0.36 1.78,0.78 2.59,1.24 5.97,3.46 6.96,8.69 2.97,12.72 z" />
				</g>
			</g>
		</g>
		<g
   id="g13310">
			<g
   id="g13306">
				<ellipse
   fill="#3d94ef"
   cx="171.39"
   cy="233.33"
   rx="17.030001"
   ry="9.8299999"
   id="ellipse13282" />
				<ellipse
   opacity="0.4"
   fill="#ffffff"
   cx="171.39"
   cy="233.33"
   rx="17.030001"
   ry="9.8299999"
   id="ellipse13284" />
				<path
   id="path13286"
   opacity="0.2"
   fill="#ffffff"
   d="m 155.14,236.26 c -1.37,-2.53 -0.92,-5.32 1.34,-7.69 0.42,-0.44 0.9,-0.86 1.44,-1.26 0.42,-0.32 0.88,-0.62 1.38,-0.91 0.27,-0.16 0.55,-0.31 0.84,-0.45 -0.71,1.16 -0.45,2.41 3.56,2.65 7.85,0.46 -2.1,7.96 -2.1,7.96 0,0 -5.06,-2.44 -6.46,-0.3 z" />
				<path
   id="path13288"
   opacity="0.5"
   fill="#ffffff"
   d="m 155.95,234.19 c -1.18,-0.13 -1.76,-1.34 -1.3,-2.71 0.46,-1.36 1.78,-2.36 2.96,-2.23 1.18,0.13 1.76,1.34 1.3,2.71 -0.46,1.36 -1.78,2.36 -2.96,2.23 z" />
				<path
   id="path13290"
   fill="#3d94ef"
   d="m 168.36,240.44 c 0.39,-2.91 13.13,-10.98 13.13,-10.98 0,0 2.83,-1.13 1.89,-3.11 0.49,0.28 0.94,0.58 1.36,0.88 0.29,0.21 0.57,0.43 0.83,0.66 3.79,3.28 3.8,7.6 0,10.89 -0.26,0.22 -0.53,0.44 -0.83,0.66 -0.39,0.28 -0.81,0.56 -1.26,0.82 -0.43,0.25 -0.88,0.49 -1.35,0.71 -0.37,0.18 -0.76,0.34 -1.15,0.49 -0.39,0.15 -0.79,0.3 -1.19,0.43 -1.21,0.4 -2.49,0.7 -3.8,0.91 -0.28,0.05 -0.57,0.09 -0.85,0.12 -1.25,0.16 -2.53,0.24 -3.8,0.24 -1.57,0 -3.13,-0.13 -4.65,-0.38 -0.01,0 2.04,-0.42 1.67,-2.34 z" />
				<path
   id="path13292"
   opacity="0.3"
   fill="#ffffff"
   d="m 168.36,240.44 c 0.39,-2.91 13.13,-10.98 13.13,-10.98 0,0 2.83,-1.13 1.89,-3.11 0.49,0.28 0.94,0.58 1.36,0.88 0.29,0.21 0.57,0.43 0.83,0.66 3.79,3.28 3.8,7.6 0,10.89 -0.26,0.22 -0.53,0.44 -0.83,0.66 -0.39,0.28 -0.81,0.56 -1.26,0.82 -0.43,0.25 -0.88,0.49 -1.35,0.71 -0.37,0.18 -0.76,0.34 -1.15,0.49 -0.39,0.15 -0.79,0.3 -1.19,0.43 -1.21,0.4 -2.49,0.7 -3.8,0.91 -0.28,0.05 -0.57,0.09 -0.85,0.12 -1.25,0.16 -2.53,0.24 -3.8,0.24 -1.57,0 -3.13,-0.13 -4.65,-0.38 -0.01,0 2.04,-0.42 1.67,-2.34 z" />
				<path
   id="path13294"
   fill="#3d94ef"
   d="m 180.37,228.15 c 4.75,2.74 4.95,7.12 0.58,10 -0.19,0.12 -0.38,0.24 -0.58,0.36 -4.95,2.86 -12.99,2.86 -17.94,0 -4.95,-2.86 -4.96,-7.5 0,-10.36 0.2,-0.12 0.41,-0.23 0.62,-0.34 4.98,-2.52 12.57,-2.41 17.32,0.34 z" />
				<path
   id="path13296"
   opacity="0.2"
   d="m 180.37,228.15 c 4.75,2.74 4.95,7.12 0.58,10 -0.19,0.12 -0.38,0.24 -0.58,0.36 -4.95,2.86 -12.99,2.86 -17.94,0 -4.95,-2.86 -4.96,-7.5 0,-10.36 0.2,-0.12 0.41,-0.23 0.62,-0.34 4.98,-2.52 12.57,-2.41 17.32,0.34 z" />
				<ellipse
   fill="#3d94ef"
   cx="171.39"
   cy="233.33"
   rx="12.13"
   ry="7"
   id="ellipse13298" />
				<ellipse
   opacity="0.5"
   cx="171.39"
   cy="233.33"
   rx="12.13"
   ry="7"
   id="ellipse13300" />
				<path
   fill="#3d94ef"
   d="m 179.97,230.33 c -4.74,-2.73 -12.41,-2.73 -17.15,0 -1.94,1.12 -3.08,2.52 -3.43,3.97 0.35,1.45 1.5,2.86 3.43,3.97 4.74,2.73 12.41,2.73 17.15,0 1.94,-1.12 3.08,-2.52 3.43,-3.97 -0.35,-1.45 -1.49,-2.85 -3.43,-3.97 z"
   id="path13302" />
				<path
   opacity="0.35"
   d="m 179.97,230.33 c -4.74,-2.73 -12.41,-2.73 -17.15,0 -1.94,1.12 -3.08,2.52 -3.43,3.97 0.35,1.45 1.5,2.86 3.43,3.97 4.74,2.73 12.41,2.73 17.15,0 1.94,-1.12 3.08,-2.52 3.43,-3.97 -0.35,-1.45 -1.49,-2.85 -3.43,-3.97 z"
   id="path13304" />
			</g>
			<polygon
   id="polygon13308"
   fill="#ffffff"
   points="155.21,231.48 155.67,227.97 156.13,231.48 162.2,231.75 156.13,232.01 155.67,235.52 155.21,232.01 149.14,231.75 " />
		</g>
	</g><g
           id="g13322"
           transform="matrix(0.85577064,0.22930306,-0.22930306,0.85577064,16.856475,-78.750279)"
           style="fill:#1e4a77;fill-opacity:1">
	<g
   id="g13320"
   style="fill:#1e4a77;fill-opacity:1">
		<g
   id="g13318"
   style="fill:#1e4a77;fill-opacity:1">
			<g
   id="g13316"
   style="fill:#1e4a77;fill-opacity:1">
				<path
   fill="#3d94ef"
   d="m 173.91,228.02 h -3.09 c -1.18,0 -2.14,0.96 -2.14,2.14 v 0.88 h -0.91 c -1.18,0 -2.14,0.96 -2.14,2.14 v 3.07 c 0,1.18 0.96,2.14 2.14,2.14 h 3.09 c 1.18,0 2.14,-0.96 2.14,-2.14 v -0.88 h 0.91 c 1.18,0 2.14,-0.96 2.14,-2.14 v -3.07 c 0,-1.18 -0.96,-2.14 -2.14,-2.14 z m -2.19,8.22 c 0,0.47 -0.38,0.85 -0.85,0.85 h -3.09 c -0.47,0 -0.85,-0.38 -0.85,-0.85 v -3.07 c 0,-0.47 0.38,-0.85 0.85,-0.85 h 0.91 1.28 0.84 l -0.84,0.87 -1.02,1.06 -0.07,0.07 c -0.37,0.38 -0.1,1.04 0.44,1.04 h 1.25 c 0.08,0.01 0.17,0 0.26,0 h 0.9 v 0.88 z m 3.05,-3.01 c 0,0.47 -0.38,0.85 -0.85,0.85 h -0.92 -1.28 -0.9 c -0.01,0 -0.02,0 -0.03,0 l 0.94,-0.92 1.02,-1.01 0.08,-0.08 c 0.38,-0.38 0.12,-1.03 -0.42,-1.03 h -1.36 c -0.06,0 -0.11,-0.01 -0.17,-0.01 h -0.9 v -0.88 c 0,-0.47 0.38,-0.85 0.85,-0.85 h 3.09 c 0.47,0 0.85,0.38 0.85,0.85 z"
   id="path13314"
   style="fill:#1e4a77;fill-opacity:1" />
			</g>
		</g>
	</g>
</g><g
           id="g13332"
           transform="matrix(0.85577064,0.22930306,-0.22930306,0.85577064,16.702636,-79.143725)">
	<g
   id="g13330">
		<g
   id="g13328">
			<g
   id="g13326">
				<path
   fill="#3d94ef"
   d="m 173.91,228.02 h -3.09 c -1.18,0 -2.14,0.96 -2.14,2.14 v 0.88 h -0.91 c -1.18,0 -2.14,0.96 -2.14,2.14 v 3.07 c 0,1.18 0.96,2.14 2.14,2.14 h 3.09 c 1.18,0 2.14,-0.96 2.14,-2.14 v -0.88 h 0.91 c 1.18,0 2.14,-0.96 2.14,-2.14 v -3.07 c 0,-1.18 -0.96,-2.14 -2.14,-2.14 z m -2.19,8.22 c 0,0.47 -0.38,0.85 -0.85,0.85 h -3.09 c -0.47,0 -0.85,-0.38 -0.85,-0.85 v -3.07 c 0,-0.47 0.38,-0.85 0.85,-0.85 h 0.91 1.28 0.84 l -0.84,0.87 -1.02,1.06 -0.07,0.07 c -0.37,0.38 -0.1,1.04 0.44,1.04 h 1.25 c 0.08,0.01 0.17,0 0.26,0 h 0.9 v 0.88 z m 3.05,-3.01 c 0,0.47 -0.38,0.85 -0.85,0.85 h -0.92 -1.28 -0.9 c -0.01,0 -0.02,0 -0.03,0 l 0.94,-0.92 1.02,-1.01 0.08,-0.08 c 0.38,-0.38 0.12,-1.03 -0.42,-1.03 h -1.36 c -0.06,0 -0.11,-0.01 -0.17,-0.01 h -0.9 v -0.88 c 0,-0.47 0.38,-0.85 0.85,-0.85 h 3.09 c 0.47,0 0.85,0.38 0.85,0.85 z"
   id="path13324" />
			</g>
		</g>
	</g>
</g></g><g
         id="g860"
         transform="matrix(1.0191764,0.27308748,-0.27308748,1.0191764,-199.2834,-94.61836)"><rect
           style="fill:#1a1a1a;stroke-width:1.32292"
           id="rect641"
           width="128.30553"
           height="32.845566"
           x="311.75946"
           y="110.70103" /><text
           xml:space="preserve"
           style="font-style:normal;font-variant:normal;font-weight:normal;font-stretch:normal;font-size:25.4px;font-family:Confidential;-inkscape-font-specification:Confidential;fill:#ffffff;stroke-width:1.32292"
           x="338.58203"
           y="135.94543"
           id="text803"><tspan
             sodipodi:role="line"
             id="tspan801"
             style="font-style:normal;font-variant:normal;font-weight:normal;font-stretch:normal;font-family:Confidential;-inkscape-font-specification:Confidential;fill:#ffffff;stroke-width:1.32292"
             x="338.58203"
             y="135.94543">Private</tspan></text></g></g></g></svg>
